<svg width="10" height="17" viewBox="0 0 10 17" fill="none" xmlns="http://www.w3.org/2000/svg">
<path d="M9.50513 0.494828C9.17548 0.164821 8.78468 0 8.33332 0H1.66677C1.21527 0 0.824699 0.164958 0.494829 0.494828C0.164958 0.824516 0 1.21522 0 1.66659V15.0001C0 15.4514 0.164958 15.8421 0.494829 16.1719C0.824699 16.5018 1.21527 16.6668 1.66677 16.6668H8.33332C8.78464 16.6668 9.17548 16.5016 9.50508 16.1719C9.835 15.8421 10 15.4514 10 15.0001V1.66659C10 1.21522 9.83522 0.824698 9.50513 0.494828ZM3.9584 1.66659H6.04192C6.18084 1.66659 6.25011 1.73605 6.25011 1.87497C6.25011 2.01384 6.18079 2.08339 6.04192 2.08339H3.9584C3.81953 2.08339 3.75007 2.01384 3.75007 1.87497C3.75002 1.73605 3.81948 1.66659 3.9584 1.66659ZM5.73595 15.7358C5.53181 15.9396 5.28664 16.0417 5.00009 16.0417C4.71368 16.0417 4.4685 15.9396 4.26446 15.7358C4.06042 15.5316 3.9584 15.2863 3.9584 15.0001C3.9584 14.7135 4.06056 14.4683 4.26446 14.2643C4.46837 14.0605 4.71373 13.9581 5.00009 13.9581C5.28668 13.9581 5.53186 14.0605 5.73595 14.2643C5.93995 14.4683 6.04188 14.7135 6.04188 15.0001C6.04188 15.2866 5.93981 15.5317 5.73595 15.7358ZM8.75021 12.9168C8.75021 13.0295 8.70902 13.1275 8.62643 13.2098C8.54375 13.2922 8.44633 13.3333 8.33364 13.3333H1.66677C1.55394 13.3333 1.4563 13.2921 1.37384 13.2098C1.29139 13.1275 1.25016 13.0295 1.25016 12.9168V3.75016C1.25016 3.63733 1.29134 3.53959 1.37384 3.45723C1.45635 3.37491 1.55394 3.33345 1.66677 3.33345H8.33332C8.44633 3.33345 8.54384 3.37473 8.62643 3.45723C8.70902 3.53964 8.75002 3.63733 8.75002 3.75016V12.9168H8.75021V12.9168Z" fill="#FFCC00"/>
</svg>
