<svg width="18" height="17" viewBox="0 0 18 17" fill="none" xmlns="http://www.w3.org/2000/svg">
<path d="M16.686 0.183139L0.700501 6.83636C0.700501 6.83636 -0.0552708 7.11108 0.00322894 7.61778C0.0633037 8.12538 0.680026 8.35758 0.680026 8.35758L4.70233 9.79352C4.70233 9.79352 5.91643 14.0172 6.15538 14.8209C6.39433 15.6223 6.58602 15.6412 6.58602 15.6412C6.80855 15.7438 7.01082 15.5805 7.01082 15.5805L9.60956 13.0675L13.6598 16.3619C14.7553 16.8688 15.154 15.8127 15.154 15.8127L18 0.585212C18 -0.429084 16.686 0.183139 16.686 0.183139ZM13.856 14.588L9.52294 11.0645L8.17834 12.3644L8.47399 9.5989L14.2497 4.1249L6.37678 8.79903L2.88457 7.55253L16.2083 2.00676L13.856 14.588Z" fill="#FFCC00"/>
</svg>
