<svg width="20" height="20" viewBox="0 0 20 20" fill="none" xmlns="http://www.w3.org/2000/svg">
<g clip-path="url(#clip0_1_1606)">
<path d="M14.275 11.8618C14.0375 11.7493 12.9 11.1868 12.6875 11.0993C12.475 11.0118 12.325 10.9868 12.1625 11.2243C12 11.4618 11.5625 11.9743 11.425 12.1368C11.2875 12.2993 11.1625 12.3118 10.925 12.1368C10.2429 11.8631 9.61287 11.4741 9.06254 10.9868C8.56435 10.5178 8.14259 9.97369 7.81254 9.37431C7.67504 9.14931 7.81254 9.02431 7.91254 8.89931C8.01254 8.77431 8.13754 8.63681 8.26254 8.49931C8.35395 8.3804 8.42958 8.25015 8.48754 8.11181C8.51855 8.04748 8.53465 7.97698 8.53465 7.90556C8.53465 7.83415 8.51855 7.76365 8.48754 7.69931C8.48754 7.58681 7.96254 6.44931 7.76254 5.98681C7.56254 5.52431 7.38754 5.58681 7.25004 5.58681H6.75004C6.51185 5.5961 6.28708 5.6995 6.12504 5.87431C5.86349 6.1239 5.65631 6.42483 5.5165 6.75823C5.37668 7.09163 5.30725 7.45032 5.31254 7.81181C5.37647 8.69929 5.7028 9.54772 6.25004 10.2493C7.25425 11.7411 8.62813 12.947 10.2375 13.7493C10.7875 13.9868 11.2125 14.1243 11.55 14.2368C12.024 14.3801 12.5249 14.41 13.0125 14.3243C13.3364 14.2586 13.6433 14.1271 13.9143 13.9378C14.1852 13.7486 14.4143 13.5058 14.5875 13.2243C14.7317 12.8767 14.7792 12.4967 14.725 12.1243C14.6625 12.0368 14.5125 11.9743 14.275 11.8618Z" fill="#FFCC00"/>
<path d="M16.6125 3.35032C15.7481 2.47767 14.7176 1.78697 13.5819 1.31896C12.4463 0.850948 11.2283 0.615097 10 0.625319C8.37292 0.633834 6.77649 1.06911 5.37023 1.88767C3.96396 2.70623 2.79707 3.87943 1.9861 5.29009C1.17513 6.70075 0.748461 8.29949 0.748716 9.92665C0.748971 11.5538 1.17614 13.1524 1.98755 14.5628L0.737549 19.3753L5.66255 18.1253C7.02409 18.8662 8.54999 19.253 10.1 19.2503H10C11.8474 19.2624 13.6566 18.7239 15.1967 17.7036C16.7369 16.6834 17.9382 15.2275 18.6477 13.5217C19.3571 11.8159 19.5424 9.93745 19.1799 8.12592C18.8174 6.31438 17.9237 4.65185 16.6125 3.35032ZM10 17.6503C8.61324 17.6514 7.25221 17.2755 6.06255 16.5628L5.78755 16.4003L2.86255 17.1628L3.63755 14.3128L3.46255 14.0253C2.46424 12.4176 2.09081 10.4994 2.41311 8.63459C2.73541 6.76979 3.731 5.08818 5.21101 3.9088C6.69101 2.72942 8.55244 2.13434 10.4421 2.23647C12.3318 2.33859 14.1183 3.13081 15.4626 4.46282C16.1832 5.17768 16.7544 6.02883 17.1429 6.96666C17.5313 7.90448 17.7292 8.91024 17.725 9.92532C17.7217 11.9731 16.9068 13.9361 15.4588 15.3841C14.0108 16.8321 12.0478 17.647 10 17.6503Z" fill="#FFCC00"/>
</g>
<defs>
<clipPath id="clip0_1_1606">
<rect width="20" height="20" fill="white"/>
</clipPath>
</defs>
</svg>
