<svg width="35" height="35" viewBox="0 0 35 35" fill="none" xmlns="http://www.w3.org/2000/svg">
<path d="M3.28125 12.0312H31.7188" stroke="#FFCC00" stroke-width="2" stroke-miterlimit="10" stroke-linejoin="round"/>
<path d="M5.46875 8.75H7.65625" stroke="#FFCC00" stroke-width="2" stroke-miterlimit="10" stroke-linejoin="round"/>
<path d="M8.75 8.75H10.9375" stroke="#FFCC00" stroke-width="2" stroke-miterlimit="10" stroke-linejoin="round"/>
<path d="M12.0312 8.75H14.2188" stroke="#FFCC00" stroke-width="2" stroke-miterlimit="10" stroke-linejoin="round"/>
<path d="M9.625 29.5312H3.28125V5.46875H31.7188V29.5312H25.375C25.7031 29.4219 26.0313 29.4219 26.3594 29.4219C26.4688 28.7656 26.5781 28 26.5781 27.3438C26.5781 26.5781 26.4688 25.9219 26.3594 25.2656C25.2656 25.375 24.1719 24.9375 23.625 23.8437C23.0781 22.8594 23.1875 21.6563 23.8437 20.7812C22.8594 19.7969 21.5469 19.0313 20.125 18.5938C19.6875 19.5781 18.7031 20.3438 17.5 20.3438C16.2969 20.3438 15.3125 19.5781 14.875 18.5938C13.4531 19.0313 12.25 19.7969 11.1562 20.7812C11.8125 21.6563 11.9219 22.8594 11.375 23.8437C10.8281 24.8281 9.625 25.375 8.64063 25.2656C8.53125 25.9219 8.42187 26.6875 8.42187 27.3438C8.42187 28.1094 8.53125 28.7656 8.64063 29.4219C8.96875 29.4219 9.29688 29.4219 9.625 29.5312Z" stroke="#FFCC00" stroke-width="2" stroke-miterlimit="10" stroke-linejoin="round"/>
<path d="M17.5 30.625C19.3122 30.625 20.7812 29.1559 20.7812 27.3438C20.7812 25.5316 19.3122 24.0625 17.5 24.0625C15.6878 24.0625 14.2188 25.5316 14.2188 27.3438C14.2188 29.1559 15.6878 30.625 17.5 30.625Z" stroke="#FFCC00" stroke-width="2" stroke-miterlimit="10"/>
</svg>
