<svg width="37" height="37" viewBox="0 0 37 37" fill="none" xmlns="http://www.w3.org/2000/svg">
<g clip-path="url(#clip0_1_2321)">
<path d="M36.3833 32.6833H35.15V12.95C35.15 12.2958 34.8901 11.6684 34.4275 11.2058C33.9649 10.7432 33.3375 10.4833 32.6833 10.4833H28.3667V8.63334C28.3667 8.46979 28.3017 8.31294 28.1861 8.19729C28.0704 8.08165 27.9136 8.01668 27.75 8.01668H27.1333V0.616677C27.1338 0.535519 27.1183 0.455068 27.0876 0.379935C27.0569 0.304801 27.0117 0.236465 26.9545 0.178844C26.8969 0.12169 26.8286 0.0764729 26.7534 0.0457847C26.6783 0.0150965 26.5978 -0.00045891 26.5167 1.03071e-05H22.8167C22.7355 -0.00045891 22.6551 0.0150965 22.5799 0.0457847C22.5048 0.0764729 22.4365 0.12169 22.3788 0.178844C22.3217 0.236465 22.2765 0.304801 22.2458 0.379935C22.2151 0.455068 22.1995 0.535519 22.2 0.616677V8.01668H20.9667V3.70001C20.9667 3.53646 20.9017 3.37961 20.7861 3.26396C20.6704 3.14831 20.5136 3.08334 20.35 3.08334H16.65C16.4865 3.08334 16.3296 3.14831 16.214 3.26396C16.0983 3.37961 16.0333 3.53646 16.0333 3.70001V8.01668H14.8V6.16668C14.8 6.00313 14.735 5.84628 14.6194 5.73063C14.5037 5.61498 14.3469 5.55001 14.1833 5.55001H10.4833C10.3198 5.55001 10.1629 5.61498 10.0473 5.73063C9.93165 5.84628 9.86668 6.00313 9.86668 6.16668V8.01668H8.01668C7.85313 8.01668 7.69627 8.08165 7.58063 8.19729C7.46498 8.31294 7.40001 8.46979 7.40001 8.63334C7.40001 8.79689 7.46498 8.95374 7.58063 9.06939C7.69627 9.18504 7.85313 9.25001 8.01668 9.25001H27.1333V10.4833H4.31668C3.66248 10.4833 3.03507 10.7432 2.57248 11.2058C2.10989 11.6684 1.85001 12.2958 1.85001 12.95V32.6833H0.616677C0.535519 32.6829 0.455068 32.6984 0.379935 32.7291C0.304801 32.7598 0.236465 32.805 0.178844 32.8622C0.12169 32.9198 0.0764729 32.9881 0.0457847 33.0633C0.0150965 33.1384 -0.00045891 33.2188 1.03071e-05 33.3C1.03071e-05 34.2813 0.389831 35.2224 1.08372 35.9163C1.7776 36.6102 2.71871 37 3.70001 37H33.3C34.2813 37 35.2224 36.6102 35.9163 35.9163C36.6102 35.2224 37 34.2813 37 33.3C37 33.1365 36.935 32.9796 36.8194 32.864C36.7037 32.7483 36.5469 32.6833 36.3833 32.6833ZM23.4333 1.23334H25.9V8.01668H23.4333V1.23334ZM17.2667 4.31668H19.7333V8.01668H17.2667V4.31668ZM11.1 6.78334H13.5667V8.01668H11.1V6.78334ZM32.6833 11.7167C33.0104 11.7167 33.3241 11.8466 33.5554 12.0779C33.7867 12.3092 33.9167 12.6229 33.9167 12.95V32.6833H32.6833V13.5667C32.6833 13.4031 32.6184 13.2463 32.5027 13.1306C32.3871 13.015 32.2302 12.95 32.0667 12.95H28.3667V11.7167H32.6833ZM5.55001 32.6833V14.1833H27.1333V20.609L23.125 22.8968C23.0053 22.9651 22.912 23.0715 22.8598 23.199C22.8166 23.327 22.8166 23.4657 22.8598 23.5937C22.896 23.724 22.974 23.8389 23.0818 23.9205C23.1782 23.9956 23.2947 24.0404 23.4166 24.0492C23.5385 24.058 23.6602 24.0304 23.7663 23.9698L28.083 21.5032C28.1765 21.4468 28.2548 21.3685 28.3112 21.275C28.3544 21.1782 28.3734 21.0724 28.3667 20.9667V14.1833H31.45V32.6833H5.55001ZM3.08334 12.95C3.08334 12.6229 3.21328 12.3092 3.44458 12.0779C3.67587 11.8466 3.98958 11.7167 4.31668 11.7167H27.1333V12.95H4.93334C4.76979 12.95 4.61294 13.015 4.49729 13.1306C4.38165 13.2463 4.31668 13.4031 4.31668 13.5667V32.6833H3.08334V12.95ZM33.3 35.7667H3.70001C3.15289 35.7663 2.6214 35.5841 2.18918 35.2487C1.75791 34.9138 1.44994 34.4454 1.31351 33.9167H35.6865C35.5501 34.4454 35.2421 34.9138 34.8108 35.2487C34.3786 35.5841 33.8471 35.7663 33.3 35.7667Z" fill="#FFCC00"/>
<path d="M14.1834 16.0332C12.4713 16.0317 10.8116 16.6239 9.48721 17.7089C8.16281 18.794 7.25562 20.3047 6.92024 21.9836C6.58485 23.6626 6.84202 25.4058 7.64792 26.9164C8.45382 28.427 9.75858 29.6114 11.3399 30.2678C12.9212 30.9242 14.6811 31.0119 16.3199 30.5161C17.9586 30.0203 19.3747 28.9716 20.3269 27.5487C21.2791 26.1257 21.7084 24.4167 21.5417 22.7127C21.375 21.0087 20.6226 19.4153 19.4127 18.2039C18.0263 16.8157 16.1453 16.0349 14.1834 16.0332ZM20.35 22.8165H14.8V17.2974C16.2257 17.4341 17.5593 18.0627 18.572 19.0754C19.5847 20.0881 20.2134 21.4217 20.35 22.8474V22.8165ZM13.5667 17.2974V22.28L9.42271 19.5174C10.4567 18.2592 11.9464 17.4612 13.5667 17.2974ZM14.1834 29.6307C13.1204 29.6299 12.0757 29.3544 11.1506 28.8308C10.2255 28.3073 9.4514 27.5535 8.9035 26.6426C8.35559 25.7317 8.05245 24.6946 8.0235 23.632C7.99454 22.5695 8.24074 21.5174 8.73821 20.578L13.838 23.9759L13.9675 24.0375C14.0378 24.0568 14.1114 24.061 14.1834 24.0499H20.35C20.1967 25.5763 19.4798 26.9907 18.3396 28.0169C17.1993 29.0432 15.7174 29.6076 14.1834 29.5999V29.6307Z" fill="#FFCC00"/>
<path d="M23.4333 26.5165H28.3667C28.5302 26.5165 28.6871 26.4516 28.8027 26.3359C28.9183 26.2203 28.9833 26.0634 28.9833 25.8999C28.9833 25.7363 28.9183 25.5795 28.8027 25.4638C28.6871 25.3482 28.5302 25.2832 28.3667 25.2832H23.4333C23.2698 25.2832 23.1129 25.3482 22.9973 25.4638C22.8816 25.5795 22.8167 25.7363 22.8167 25.8999C22.8167 26.0634 22.8816 26.2203 22.9973 26.3359C23.1129 26.4516 23.2698 26.5165 23.4333 26.5165Z" fill="#FFCC00"/>
<path d="M28.3667 27.75H23.4333C23.2698 27.75 23.1129 27.815 22.9973 27.9306C22.8816 28.0463 22.8167 28.2031 22.8167 28.3667C22.8167 28.5302 22.8816 28.6871 22.9973 28.8027C23.1129 28.9184 23.2698 28.9833 23.4333 28.9833H28.3667C28.5302 28.9833 28.6871 28.9184 28.8027 28.8027C28.9183 28.6871 28.9833 28.5302 28.9833 28.3667C28.9833 28.2031 28.9183 28.0463 28.8027 27.9306C28.6871 27.815 28.5302 27.75 28.3667 27.75Z" fill="#FFCC00"/>
<path d="M28.3667 30.2168H23.4333C23.2698 30.2168 23.1129 30.2818 22.9973 30.3974C22.8816 30.5131 22.8167 30.6699 22.8167 30.8335C22.8167 30.997 22.8816 31.1539 22.9973 31.2695C23.1129 31.3852 23.2698 31.4501 23.4333 31.4501H28.3667C28.5302 31.4501 28.6871 31.3852 28.8027 31.2695C28.9183 31.1539 28.9833 30.997 28.9833 30.8335C28.9833 30.6699 28.9183 30.5131 28.8027 30.3974C28.6871 30.2818 28.5302 30.2168 28.3667 30.2168Z" fill="#FFCC00"/>
</g>
<defs>
<clipPath id="clip0_1_2321">
<rect width="37" height="37" fill="white"/>
</clipPath>
</defs>
</svg>
