<svg width="37" height="37" viewBox="0 0 37 37" fill="none" xmlns="http://www.w3.org/2000/svg">
<g clip-path="url(#clip0_1_2328)">
<path d="M36.445 14.8L32.0667 14.3683C31.8011 13.4912 31.45 12.6423 31.0183 11.8338L33.8057 8.42985C33.8908 8.30979 33.9302 8.16324 33.9167 8.01668C33.9082 7.86566 33.8446 7.72301 33.7378 7.61585L29.4027 3.23752C29.2948 3.12916 29.1505 3.06474 28.9978 3.05676C28.8451 3.04879 28.6949 3.09782 28.5763 3.19435L25.1662 5.98168C24.3599 5.55005 23.513 5.19891 22.6378 4.93335L22.2 0.555017C22.1852 0.403625 22.1149 0.263064 22.0027 0.16035C21.888 0.0561168 21.7383 -0.0011243 21.5833 1.67361e-05H15.4167C15.2638 0.000415724 15.1166 0.0575532 15.0035 0.16035C14.9451 0.209305 14.897 0.269423 14.862 0.337189C14.8271 0.404955 14.806 0.479008 14.8 0.555017L14.3683 4.93335C13.4912 5.19887 12.6423 5.55001 11.8338 5.98168L8.42367 3.19435C8.3051 3.09782 8.15489 3.04879 8.00219 3.05676C7.8495 3.06474 7.70522 3.12916 7.59734 3.23752L3.23751 7.59735C3.12915 7.70522 3.06473 7.84951 3.05676 8.0022C3.04878 8.15489 3.09781 8.30511 3.19434 8.42368L5.98167 11.8338C5.55 12.6423 5.19886 13.4912 4.93334 14.3683L0.555008 14.8C0.402368 14.8154 0.260927 14.887 0.158302 15.0011C0.0556773 15.1151 -0.000761023 15.2633 7.75169e-06 15.4167V21.5833C0.000406739 21.7362 0.0575442 21.8834 0.160341 21.9965C0.262063 22.111 0.402747 22.1835 0.555008 22.2L4.93334 22.6378C5.19891 23.513 5.55005 24.3599 5.98167 25.1662L3.19434 28.5764C3.09781 28.6949 3.04878 28.8451 3.05676 28.9978C3.06473 29.1505 3.12915 29.2948 3.23751 29.4027L7.59734 33.7625C7.70522 33.8709 7.8495 33.9353 8.00219 33.9433C8.15489 33.9512 8.3051 33.9022 8.42367 33.8057L11.507 31.2959L10.7115 30.34L8.07834 32.4984L4.50784 28.9217L7.20267 25.6225C7.28405 25.5275 7.33175 25.4083 7.33834 25.2833C7.34849 25.1588 7.32053 25.034 7.25817 24.9257C6.71886 23.9735 6.30434 22.9559 6.02484 21.8978C5.98828 21.7791 5.92006 21.6725 5.82751 21.5895C5.7315 21.5089 5.61319 21.4594 5.48834 21.4477L1.23334 21.0283V15.9778L5.46984 15.5524C5.594 15.5424 5.71225 15.4951 5.80901 15.4167C5.90156 15.3337 5.96978 15.2271 6.00634 15.1083C6.28584 14.0503 6.70036 13.0327 7.23967 12.0805C7.30973 11.9725 7.34424 11.8453 7.33834 11.7167C7.32841 11.5925 7.28111 11.4743 7.20267 11.3775L4.50784 8.07835L8.07834 4.50785L11.3775 7.20268C11.4725 7.28406 11.5918 7.33176 11.7167 7.33835C11.8413 7.3485 11.966 7.32054 12.0743 7.25818C13.0265 6.71887 14.0442 6.30435 15.1022 6.02485C15.221 5.98829 15.3276 5.92007 15.4105 5.82752C15.4912 5.73151 15.5406 5.6132 15.5523 5.48835L15.9778 1.23335H21.0283L21.4538 5.46985C21.4655 5.5947 21.515 5.71301 21.5957 5.80902C21.6776 5.90282 21.7845 5.97128 21.904 6.00635C22.962 6.28585 23.9797 6.70037 24.9318 7.23968C25.0402 7.30204 25.1649 7.33 25.2895 7.31985C25.4137 7.30992 25.5319 7.26262 25.6287 7.18418L28.9217 4.50785L32.4922 8.07835L29.7973 11.3714C29.7187 11.4682 29.6712 11.5867 29.6613 11.7111C29.6514 11.8356 29.6795 11.9601 29.7418 12.0682C30.2792 13.0213 30.6936 14.0387 30.9752 15.096C31.0116 15.2166 31.0797 15.3253 31.1725 15.4105C31.2685 15.4912 31.3868 15.5407 31.5117 15.5524L35.7482 15.9778V21.0283L31.5117 21.4538C31.3868 21.4655 31.2685 21.515 31.1725 21.5957C31.08 21.6786 31.0117 21.7852 30.9752 21.904C30.6957 22.962 30.2812 23.9797 29.7418 24.9319C29.6795 25.0402 29.6515 25.1649 29.6617 25.2895C29.6716 25.4137 29.7189 25.5319 29.7973 25.6287L32.4922 28.9217L28.9217 32.4984L26.2823 30.34L25.4992 31.2959L28.5825 33.8057C28.7015 33.9047 28.8534 33.9553 29.008 33.9475C29.159 33.9391 29.3017 33.8754 29.4088 33.7687L33.7748 29.4088C33.8699 29.2877 33.92 29.1373 33.9167 28.9834C33.9229 28.8308 33.8724 28.6814 33.7748 28.564L31.0183 25.1662C31.45 24.3599 31.8011 23.513 32.0667 22.6378L36.445 22.2C36.5973 22.1835 36.738 22.111 36.8397 21.9965C36.9425 21.8834 36.9996 21.7362 37 21.5833V15.4167C37.0008 15.2633 36.9443 15.1151 36.8417 15.0011C36.7391 14.887 36.5976 14.8154 36.445 14.8Z" fill="#FFCC00"/>
<path d="M19.1166 6.16602H17.8833V7.39935H19.1166V6.16602Z" fill="#FFCC00"/>
<path d="M10.2182 9.3418L9.34253 10.2113L10.212 11.0993L11.1 10.2175L10.2182 9.3418Z" fill="#FFCC00"/>
<path d="M7.40008 17.8828H6.16675V19.1161H7.40008V17.8828Z" fill="#FFCC00"/>
<path d="M10.2182 25.9004L9.34253 26.7761L10.2182 27.6456L11.1 26.7822L10.2182 25.9004Z" fill="#FFCC00"/>
<path d="M26.7879 25.9004L25.8999 26.7822L26.7694 27.6579L27.6451 26.7884L26.7879 25.9004Z" fill="#FFCC00"/>
<path d="M30.8334 17.8828H29.6001V19.1161H30.8334V17.8828Z" fill="#FFCC00"/>
<path d="M26.7817 9.3418L25.8999 10.2175L26.7879 11.0993L27.6574 10.2236L26.7817 9.3418Z" fill="#FFCC00"/>
<path d="M28.3666 18.4995C28.3673 16.7674 27.912 15.0656 27.0465 13.5652C26.1809 12.0649 24.9357 10.8188 23.4359 9.95227C21.9361 9.08576 20.2346 8.62934 18.5024 8.62891C16.7703 8.62847 15.0686 9.08404 13.5683 9.9498C12.0681 10.8156 10.8222 12.061 9.95592 13.561C9.08963 15.0609 8.63347 16.7625 8.6333 18.4946C8.63313 20.2267 9.08895 21.9284 9.95494 23.4285C10.8209 24.9286 12.0666 26.1743 13.5666 27.0404V28.4772C13.2079 28.6064 12.8963 28.8406 12.6725 29.1494C12.4522 29.4615 12.3339 29.8341 12.3339 30.2162C12.3339 30.5982 12.4522 30.9709 12.6725 31.283C12.8963 31.5918 13.2079 31.826 13.5666 31.9552V32.6829C13.5666 33.8277 14.0214 34.9257 14.831 35.7352C15.6405 36.5447 16.7384 36.9995 17.8833 36.9995H19.1166C20.2615 36.9995 21.3594 36.5447 22.169 35.7352C22.9785 34.9257 23.4333 33.8277 23.4333 32.6829V31.9552C23.7921 31.826 24.1036 31.5918 24.3275 31.283C24.5478 30.9709 24.6661 30.5982 24.6661 30.2162C24.6661 29.8341 24.5478 29.4615 24.3275 29.1494C24.1036 28.8406 23.7921 28.6064 23.4333 28.4772V27.0404C24.9326 26.1747 26.1778 24.9298 27.0438 23.4306C27.9097 21.9314 28.3659 20.2308 28.3666 18.4995ZM9.86663 18.1419C9.93401 16.6306 10.3973 15.1635 11.2101 13.8876C12.023 12.6118 13.1568 11.5719 14.498 10.8721C15.8392 10.1724 17.3407 9.83734 18.8522 9.90056C20.3637 9.96379 21.832 10.4231 23.1101 11.2324C24.3882 12.0417 25.4312 13.1726 26.1346 14.5119C26.8381 15.8512 27.1772 17.3518 27.1181 18.8635C27.0591 20.3751 26.6038 21.8447 25.798 23.125C24.9922 24.4053 23.8642 25.4514 22.5268 26.1585C22.4264 26.207 22.3426 26.2843 22.2863 26.3805C22.2266 26.4769 22.1946 26.5878 22.1938 26.7012V28.3662H14.8V26.6765C14.799 26.564 14.7693 26.4536 14.7136 26.3559C14.6549 26.2615 14.5718 26.1848 14.4731 26.1339C13.0302 25.3652 11.8332 24.2054 11.0195 22.7874C10.2058 21.3694 9.80839 19.7508 9.8728 18.1172L9.86663 18.1419ZM19.1166 35.7662H17.8833C17.0655 35.7662 16.2813 35.4413 15.7031 34.8631C15.1248 34.2849 14.8 33.5006 14.8 32.6829V32.0662H22.2V32.6829C22.2 33.5006 21.8751 34.2849 21.2969 34.8631C20.7186 35.4413 19.9344 35.7662 19.1166 35.7662ZM22.8166 30.8329H14.1833C14.0198 30.8329 13.8629 30.7679 13.7473 30.6522C13.6316 30.5366 13.5666 30.3797 13.5666 30.2162C13.5666 30.0526 13.6316 29.8958 13.7473 29.7801C13.8629 29.6645 14.0198 29.5995 14.1833 29.5995H22.8166C22.9802 29.5995 23.137 29.6645 23.2527 29.7801C23.3683 29.8958 23.4333 30.0526 23.4333 30.2162C23.4333 30.3797 23.3683 30.5366 23.2527 30.6522C23.137 30.7679 22.9802 30.8329 22.8166 30.8329Z" fill="#FFCC00"/>
<path d="M16.132 20.8134L18.5 18.7106L20.868 20.8134C20.9804 20.9126 21.1251 20.9674 21.275 20.9676C21.427 20.9689 21.5741 20.914 21.6881 20.8134L24.4631 18.3468L23.643 17.4218L21.275 19.5246L18.907 17.4218C18.7945 17.3226 18.6499 17.2678 18.5 17.2676C18.348 17.2663 18.2008 17.3212 18.0868 17.4218L15.725 19.5246L13.3631 17.4218L12.543 18.3468L15.318 20.8134C15.4305 20.9123 15.5752 20.9668 15.725 20.9668C15.8748 20.9668 16.0194 20.9123 16.132 20.8134Z" fill="#FFCC00"/>
</g>
<defs>
<clipPath id="clip0_1_2328">
<rect width="37" height="37" fill="white"/>
</clipPath>
</defs>
</svg>
