<svg width="37" height="37" viewBox="0 0 37 37" fill="none" xmlns="http://www.w3.org/2000/svg">
<g clip-path="url(#clip0_1_2340)">
<path d="M16.6027 10.9668C16.601 10.136 16.4152 9.316 16.0588 8.56561C15.7023 7.81523 15.184 7.15315 14.5411 6.62699C13.8983 6.10084 13.1468 5.72367 12.3407 5.52262C11.5347 5.32157 10.6941 5.30162 9.87941 5.46422C9.06483 5.62658 8.29633 5.96739 7.62916 6.46215C6.96199 6.95692 6.41272 7.59336 6.02084 8.32571C5.62896 9.05806 5.40421 9.86814 5.36273 10.6977C5.32125 11.5273 5.46408 12.3557 5.78095 13.1235C6.20619 14.1501 6.92541 15.028 7.8482 15.6469C8.77098 16.2659 9.85615 16.5982 10.9673 16.6022C11.7069 16.6024 12.4395 16.4584 13.124 16.1784C13.8102 15.897 14.4336 15.482 14.9581 14.9576C15.4825 14.4331 15.8975 13.8097 16.1789 13.1235C16.4589 12.439 16.6029 11.7064 16.6027 10.9668ZM10.9799 15.0083C10.1815 15.0073 9.4012 14.7701 8.73722 14.3267C8.07323 13.8833 7.5552 13.2535 7.2483 12.5164C6.86734 11.5904 6.84365 10.556 7.18182 9.61361C7.51998 8.67119 8.19593 7.88785 9.07869 7.41537C9.96145 6.94289 10.9882 6.8149 11.9599 7.05621C12.9316 7.29751 13.7792 7.89093 14.3384 8.72149C14.7849 9.38505 15.0228 10.167 15.0215 10.9668C15.0201 11.4986 14.9149 12.025 14.7116 12.5164C14.5089 13.0083 14.2106 13.4551 13.8338 13.8308C13.457 14.2065 13.0094 14.5035 12.5168 14.7047C12.0251 14.906 11.4987 15.0092 10.9673 15.0083H10.9799Z" fill="#FFCC00"/>
<path d="M29.1447 12.459C28.4798 12.4587 27.83 12.6573 27.2788 13.0293C26.7277 13.4012 26.3004 13.9295 26.0518 14.5462C25.7765 15.2074 25.721 15.9396 25.8936 16.6348C26.0662 17.33 26.4577 17.9513 27.0104 18.4069C27.5631 18.8625 28.2477 19.1283 28.963 19.1652C29.6784 19.202 30.3866 19.0078 30.9831 18.6113C31.5797 18.2148 32.0329 17.6371 32.276 16.9633C32.5191 16.2895 32.539 15.5554 32.333 14.8694C32.1269 14.1834 31.7058 13.5818 31.1317 13.1535C30.5576 12.7252 29.8609 12.4928 29.1447 12.4906V12.459ZM29.1447 17.5504C28.8841 17.5517 28.6265 17.4949 28.3906 17.3844C28.1547 17.2739 27.9462 17.1123 27.7804 16.9114C27.6145 16.7104 27.4954 16.4751 27.4316 16.2225C27.3679 15.9698 27.3611 15.7062 27.4117 15.4506C27.4783 15.108 27.6458 14.7932 27.8926 14.5464C28.1393 14.2996 28.4542 14.1321 28.7968 14.0655C29.0536 14.0134 29.3188 14.0196 29.5728 14.0836C29.8269 14.1476 30.0634 14.2678 30.2649 14.4353C30.4664 14.6028 30.6277 14.8133 30.737 15.0514C30.8464 15.2895 30.9009 15.5491 30.8966 15.8111C30.8966 16.2758 30.712 16.7214 30.3835 17.0499C30.0549 17.3785 29.6093 17.5631 29.1447 17.5631V17.5504Z" fill="#FFCC00"/>
<path d="M16.8809 25.9629C16.3871 25.9628 15.8993 26.0722 15.4528 26.2832C15.0063 26.4943 14.6122 26.8018 14.2989 27.1835C13.9855 27.5652 13.7607 28.0117 13.6407 28.4907C13.5206 28.9698 13.5083 29.4695 13.6047 29.9539C13.7425 30.6058 14.0705 31.2022 14.5471 31.6679C15.0147 32.1357 15.6117 32.4529 16.2611 32.5786C16.7188 32.669 17.1904 32.6624 17.6454 32.5594C18.1004 32.4563 18.5288 32.2591 18.9029 31.9804C19.2771 31.7016 19.5886 31.3476 19.8176 30.9411C20.0465 30.5346 20.1877 30.0846 20.2321 29.6202C20.2765 29.1558 20.2231 28.6872 20.0754 28.2447C19.9276 27.8021 19.6887 27.3955 19.3742 27.0509C19.0597 26.7063 18.6764 26.4315 18.2491 26.2441C17.8219 26.0567 17.3601 25.9609 16.8936 25.9629H16.8809ZM16.8809 31.0544C16.5331 31.0527 16.1935 30.9487 15.9044 30.7552C15.6153 30.5617 15.3896 30.2874 15.2555 29.9665C15.1242 29.6462 15.0891 29.2945 15.1543 28.9545C15.2209 28.612 15.3884 28.2971 15.6351 28.0503C15.8819 27.8035 16.1968 27.6361 16.5394 27.5694C16.8794 27.5042 17.231 27.5394 17.5514 27.6706C17.8723 27.8048 18.1466 28.0305 18.34 28.3195C18.5335 28.6086 18.6376 28.9483 18.6392 29.2961C18.6401 29.5272 18.5951 29.7562 18.5071 29.9699C18.419 30.1836 18.2895 30.3778 18.1261 30.5412C17.9626 30.7047 17.7685 30.8342 17.5548 30.9222C17.3411 31.0103 17.1121 31.0552 16.8809 31.0544Z" fill="#FFCC00"/>
<path d="M13.6869 21.1438V19.7017C14.2185 19.5413 14.7333 19.3295 15.2238 19.0692L16.2484 20.0875C16.3201 20.1613 16.4062 20.2194 16.5014 20.2583C16.6006 20.3038 16.7085 20.3273 16.8176 20.3273C16.9268 20.3273 17.0347 20.3038 17.1339 20.2583C17.2291 20.2194 17.3152 20.1613 17.3869 20.0875L20.1065 17.3679C20.1803 17.2962 20.2384 17.2101 20.2773 17.1149C20.3228 17.0157 20.3463 16.9078 20.3463 16.7986C20.3463 16.6895 20.3228 16.5816 20.2773 16.4824C20.2384 16.3872 20.1803 16.3011 20.1065 16.2294L19.0882 15.2048C19.3485 14.7143 19.5603 14.1995 19.7207 13.6679H21.1628C21.3719 13.6662 21.5721 13.5824 21.72 13.4345C21.8679 13.2866 21.9517 13.0864 21.9534 12.8773V9.04445C21.9517 8.83528 21.8679 8.63515 21.72 8.48724C21.5721 8.33933 21.3719 8.25551 21.1628 8.25385H19.7017C19.5414 7.72016 19.3296 7.20332 19.0693 6.7106L20.0876 5.69231C20.156 5.61761 20.2077 5.52922 20.2393 5.433C20.2857 5.334 20.3097 5.22605 20.3097 5.11676C20.3097 5.00747 20.2857 4.89951 20.2393 4.80052C20.2021 4.70261 20.1438 4.61408 20.0686 4.5412L17.3489 1.82154C17.2773 1.7478 17.1911 1.68966 17.0959 1.65078C16.9967 1.6053 16.8888 1.58175 16.7797 1.58175C16.6705 1.58175 16.5627 1.6053 16.4635 1.65078C16.3683 1.68966 16.2821 1.7478 16.2105 1.82154L15.2238 2.87146C14.732 2.61384 14.2175 2.40212 13.6869 2.23898V0.790604C13.6873 0.686864 13.6668 0.584106 13.6266 0.488475C13.5864 0.392843 13.5273 0.306301 13.4529 0.234023C13.3806 0.159605 13.294 0.100525 13.1984 0.060316C13.1028 0.0201071 13 -0.000404959 12.8963 6.05669e-06H9.04448C8.94074 -0.000404959 8.83798 0.0201071 8.74235 0.060316C8.64672 0.100525 8.56017 0.159605 8.4879 0.234023C8.41348 0.306301 8.3544 0.392843 8.31419 0.488475C8.27398 0.584106 8.25347 0.686864 8.25388 0.790604V2.23266C7.72118 2.39577 7.20459 2.60749 6.71063 2.86513L5.69234 1.85317C5.61946 1.77793 5.53093 1.71963 5.43302 1.6824C5.33403 1.63609 5.22607 1.61209 5.11678 1.61209C5.00749 1.61209 4.89954 1.63609 4.80054 1.6824C4.70264 1.71963 4.61411 1.77793 4.54123 1.85317L1.85319 4.58548C1.77796 4.65836 1.71966 4.74688 1.68243 4.84479C1.64079 4.93948 1.61929 5.04178 1.61929 5.14522C1.61929 5.24866 1.64079 5.35096 1.68243 5.44565C1.72126 5.53903 1.77946 5.6231 1.85319 5.69231L2.87148 6.7106C2.61384 7.20456 2.40212 7.72115 2.23901 8.25385H0.790631C0.686064 8.25287 0.582514 8.27444 0.487041 8.3171C0.39101 8.35441 0.304561 8.41276 0.234049 8.48787C0.158938 8.55838 0.100585 8.64483 0.0632802 8.74086C0.0206191 8.83633 -0.000953718 8.93988 3.23412e-05 9.04445V12.8962C0.00496132 13.1028 0.0886833 13.2997 0.234049 13.4465C0.383096 13.5916 0.58262 13.6732 0.790631 13.6742H2.23268C2.39582 14.2049 2.60755 14.7193 2.86516 15.2111L1.85319 16.2357C1.77945 16.3074 1.72131 16.3935 1.68243 16.4887C1.63695 16.5879 1.6134 16.6958 1.6134 16.805C1.6134 16.9141 1.63695 17.022 1.68243 17.1212C1.72131 17.2164 1.77945 17.3025 1.85319 17.3742L4.5855 20.0939C4.65838 20.1691 4.74691 20.2274 4.84482 20.2646C4.9395 20.3063 5.04181 20.3278 5.14525 20.3278C5.24868 20.3278 5.35099 20.3063 5.44567 20.2646C5.54023 20.2221 5.62439 20.1595 5.69234 20.0812L6.71063 19.0629C7.20334 19.3232 7.72019 19.5351 8.25388 19.6954V21.1374C8.25289 21.242 8.27446 21.3456 8.31713 21.441C8.39842 21.6317 8.55026 21.7835 8.74089 21.8648C8.83636 21.9075 8.93991 21.929 9.04448 21.928H12.8963C13.1028 21.9231 13.2997 21.8394 13.4465 21.694C13.5188 21.6218 13.576 21.536 13.6151 21.4415C13.6542 21.3471 13.6743 21.2459 13.6742 21.1438H13.6869ZM12.1057 19.1325V20.3974H9.83507V19.1325C9.83531 18.9505 9.77276 18.774 9.65798 18.6328C9.54103 18.4936 9.38062 18.3978 9.2026 18.3609C8.40923 18.1763 7.65098 17.8644 6.9573 17.4374C6.80685 17.3424 6.6274 17.3043 6.45131 17.3299C6.27446 17.3476 6.10914 17.4258 5.98328 17.5513L5.09149 18.4368L3.51029 16.805L4.42738 15.9132C4.55434 15.7876 4.63467 15.6225 4.65507 15.4451C4.6751 15.2685 4.63499 15.0902 4.54123 14.9392C4.11169 14.2521 3.79562 13.5004 3.60516 12.7128C3.56685 12.5353 3.4713 12.3753 3.33319 12.2574C3.19445 12.1427 3.01993 12.08 2.83986 12.0803H1.5749V9.83505H2.83986C3.01993 9.83539 3.19445 9.77274 3.33319 9.65796C3.4713 9.54006 3.56685 9.38007 3.60516 9.20257C3.78975 8.4092 4.1016 7.65095 4.52858 6.95727C4.62234 6.80621 4.66245 6.62795 4.64243 6.45129C4.62142 6.28222 4.54594 6.12458 4.42738 6.00223L3.52926 5.11043L5.12943 3.51026L6.02123 4.42736C6.14677 4.55432 6.31188 4.63464 6.48926 4.65505C6.66593 4.67507 6.84418 4.63497 6.99525 4.5412C7.68308 4.11609 8.43478 3.80431 9.22157 3.61778C9.39907 3.57948 9.55906 3.48392 9.67696 3.34582C9.79174 3.20708 9.85439 3.03256 9.85405 2.85248V1.58753H12.1246V2.85248C12.1243 3.03256 12.187 3.20708 12.3017 3.34582C12.4196 3.48392 12.5796 3.57948 12.7571 3.61778C13.5439 3.80431 14.2956 4.11609 14.9835 4.5412C15.1345 4.63497 15.3128 4.67507 15.4894 4.65505C15.6668 4.63464 15.8319 4.55432 15.9575 4.42736L16.8493 3.54189L18.4494 5.14206L17.564 6.03385C17.4385 6.15971 17.3603 6.32504 17.3426 6.50189C17.317 6.67797 17.3551 6.85742 17.4501 7.00787C17.8752 7.69571 18.187 8.4474 18.3735 9.23419C18.4105 9.41222 18.5063 9.57263 18.6455 9.68958C18.7867 9.80435 18.9632 9.8669 19.1452 9.86667H20.4101V12.1373H19.1452C18.9632 12.137 18.7867 12.1996 18.6455 12.3144C18.5063 12.4313 18.4105 12.5917 18.3735 12.7698C18.187 13.5565 17.8752 14.3082 17.4501 14.9961C17.3551 15.1465 17.317 15.326 17.3426 15.5021C17.3603 15.6789 17.4385 15.8442 17.564 15.9701L18.4494 16.8619L16.8493 18.4621L15.9575 17.5766C15.8316 17.4511 15.6663 17.3729 15.4894 17.3552C15.3133 17.3296 15.1339 17.3677 14.9835 17.4627C14.2889 17.8736 13.533 18.1704 12.7445 18.3419C12.5636 18.376 12.4003 18.4722 12.2828 18.6139C12.1689 18.758 12.1065 18.9361 12.1057 19.1198V19.1325Z" fill="#FFCC00"/>
<path d="M36.2094 13.6678H35.3809C35.2919 13.4011 35.1841 13.1412 35.0583 12.8898L35.6465 12.3016C35.7918 12.1528 35.8731 11.953 35.8731 11.745C35.8731 11.537 35.7918 11.3373 35.6465 11.1884L33.7491 9.291C33.6762 9.21577 33.5877 9.15747 33.4898 9.12024C33.3908 9.07393 33.2828 9.04992 33.1735 9.04992C33.0643 9.04992 32.9563 9.07393 32.8573 9.12024C32.7594 9.15747 32.6709 9.21577 32.598 9.291L32.0161 9.87288C31.7626 9.74705 31.5005 9.63926 31.2318 9.55032V8.7281C31.2302 8.51893 31.1464 8.3188 30.9984 8.17089C30.8505 8.02298 30.6504 7.93915 30.4412 7.9375H27.8291C27.7252 7.93743 27.6223 7.95673 27.5255 7.99442C27.4284 8.03323 27.3402 8.09137 27.2663 8.1653C27.1924 8.23923 27.1342 8.32742 27.0954 8.42451C27.0577 8.52128 27.0384 8.62424 27.0385 8.7281V9.55032C26.7694 9.63819 26.5073 9.74601 26.2542 9.87288L25.6723 9.291C25.5995 9.21577 25.5109 9.15747 25.413 9.12024C25.3183 9.0786 25.216 9.0571 25.1126 9.0571C25.0092 9.0571 24.9069 9.0786 24.8122 9.12024C24.7143 9.15747 24.6257 9.21577 24.5529 9.291L22.6554 11.1884C22.5102 11.3373 22.4289 11.537 22.4289 11.745C22.4289 11.953 22.5102 12.1528 22.6554 12.3016L23.2436 12.8898C23.1287 13.1428 23.0294 13.4026 22.9464 13.6678H22.1368C21.9276 13.6694 21.7275 13.7532 21.5796 13.9011C21.4317 14.0491 21.3478 14.2492 21.3462 14.4584V17.1337C21.3478 17.3429 21.4317 17.543 21.5796 17.6909C21.7275 17.8389 21.9276 17.9227 22.1368 17.9243H22.959C23.0529 18.19 23.1627 18.4498 23.2879 18.7023L22.6997 19.2905C22.554 19.4404 22.4726 19.6412 22.4726 19.8502C22.4726 20.0593 22.554 20.2601 22.6997 20.41L24.5971 22.3074C24.67 22.3827 24.7585 22.441 24.8564 22.4782C24.9554 22.5245 25.0634 22.5485 25.1727 22.5485C25.282 22.5485 25.3899 22.5245 25.4889 22.4782C25.5868 22.441 25.6754 22.3827 25.7482 22.3074L26.3301 21.7255C26.5832 21.8524 26.8453 21.9602 27.1144 22.0481V22.864C27.1143 22.9679 27.1336 23.0708 27.1713 23.1676C27.2101 23.2647 27.2683 23.3529 27.3422 23.4268C27.4161 23.5007 27.5043 23.5589 27.6014 23.5977C27.6982 23.6354 27.8011 23.6547 27.905 23.6546H30.5741C30.7832 23.6529 30.9834 23.5691 31.1313 23.4212C31.2792 23.2733 31.363 23.0732 31.3647 22.864V22.0354C31.6333 21.9465 31.8954 21.8387 32.1489 21.7129L32.7308 22.2948C32.8037 22.37 32.8922 22.4283 32.9901 22.4655C33.0848 22.5072 33.1871 22.5287 33.2905 22.5287C33.394 22.5287 33.4963 22.5072 33.591 22.4655C33.6889 22.4283 33.7774 22.37 33.8503 22.2948L35.7477 20.3973C35.8934 20.2474 35.9749 20.0466 35.9749 19.8376C35.9749 19.6286 35.8934 19.4278 35.7477 19.2778L35.1595 18.6896C35.2638 18.4366 35.3504 18.1767 35.4188 17.9117H36.2094C36.4186 17.91 36.6187 17.8262 36.7666 17.6783C36.9146 17.5304 36.9984 17.3303 37 17.1211V14.4584C36.9984 14.2492 36.9146 14.0491 36.7666 13.9011C36.6187 13.7532 36.4186 13.6694 36.2094 13.6678ZM35.4188 16.3431H34.7864C34.6063 16.3428 34.4318 16.4054 34.293 16.5202C34.1549 16.6381 34.0594 16.7981 34.0211 16.9756C33.8937 17.4966 33.6799 17.9926 33.3886 18.443C33.2948 18.594 33.2547 18.7723 33.2747 18.949C33.298 19.1255 33.3779 19.2897 33.5024 19.417L33.9452 19.866L33.1735 20.6377L32.7308 20.1949C32.6096 20.0711 32.4507 19.9909 32.2791 19.9668C32.1074 19.9428 31.9327 19.9763 31.7821 20.0621C31.3295 20.3536 30.8314 20.5673 30.3084 20.6946C30.1309 20.7329 29.9709 20.8285 29.853 20.9666C29.7383 21.1078 29.6757 21.2842 29.6759 21.4662V22.0987H28.6197V21.4662C28.6198 21.2832 28.5547 21.1061 28.4363 20.9666C28.3219 20.8274 28.1635 20.7315 27.9872 20.6946C27.4642 20.5673 26.9661 20.3536 26.5135 20.0621C26.3625 19.9684 26.1842 19.9282 26.0076 19.9483C25.8302 19.9687 25.6651 20.049 25.5395 20.176L25.0905 20.6187L24.3188 19.8471L24.7679 19.398C24.8925 19.2708 24.9724 19.1065 24.9956 18.93C25.0156 18.7533 24.9755 18.5751 24.8817 18.424C24.5904 17.9736 24.3766 17.4777 24.2493 16.9566C24.211 16.7792 24.1154 16.6192 23.9773 16.5013C23.8386 16.3865 23.664 16.3238 23.484 16.3242H22.8515V15.249H23.484C23.664 15.2493 23.8386 15.1866 23.9773 15.0719C24.1154 14.954 24.211 14.794 24.2493 14.6165C24.3765 14.0935 24.5903 13.5954 24.8817 13.1428C24.9707 12.9899 25.0083 12.8126 24.9893 12.6368C24.9674 12.463 24.8897 12.301 24.7679 12.1751L24.3188 11.726L25.0905 10.9544L25.5395 11.4035C25.6668 11.5281 25.831 11.608 26.0076 11.6312C26.1849 11.6488 26.3631 11.6065 26.5135 11.511C26.9695 11.2332 27.467 11.0303 27.9872 10.9101C28.1635 10.8733 28.3219 10.7773 28.4363 10.6382C28.5547 10.4987 28.6198 10.3216 28.6197 10.1385V9.48707H29.7265V10.1196C29.7263 10.3015 29.7889 10.478 29.9036 10.6192C30.0215 10.7573 30.1815 10.8529 30.359 10.8912C30.8702 11.0243 31.3569 11.2377 31.8011 11.5237C31.9515 11.6192 32.1297 11.6615 32.307 11.6438C32.4836 11.6206 32.6478 11.5407 32.7751 11.4161L33.2178 10.9671L33.9894 11.7387L33.5467 12.1878C33.4221 12.315 33.3422 12.4792 33.319 12.6558C33.299 12.8325 33.3391 13.0107 33.4329 13.1618C33.7243 13.6143 33.9381 14.1124 34.0653 14.6354C34.1036 14.8129 34.1992 14.9729 34.3373 15.0908C34.476 15.2056 34.6506 15.2683 34.8306 15.2679H35.4631L35.4188 16.3431Z" fill="#FFCC00"/>
<path d="M23.7938 27.1975H23.0033C22.9157 26.9445 22.8122 26.6974 22.6933 26.4575L23.2562 25.8946C23.4019 25.7447 23.4834 25.5439 23.4834 25.3349C23.4834 25.1258 23.4019 24.925 23.2562 24.7751L21.4094 22.9283C21.3365 22.853 21.248 22.7947 21.1501 22.7575C21.0554 22.7159 20.9531 22.6944 20.8497 22.6944C20.7462 22.6944 20.6439 22.7159 20.5492 22.7575C20.4513 22.7947 20.3628 22.853 20.2899 22.9283L19.727 23.4912C19.483 23.372 19.2316 23.2685 18.9744 23.1813V22.3843C18.9727 22.1752 18.8889 21.975 18.741 21.8271C18.5931 21.6792 18.3929 21.5954 18.1838 21.5938H15.578C15.3688 21.5954 15.1687 21.6792 15.0207 21.8271C14.8728 21.975 14.789 22.1752 14.7874 22.3843V23.1813C14.5323 23.2688 14.283 23.3723 14.041 23.4912L13.4781 22.9283C13.404 22.8576 13.3156 22.8037 13.2188 22.7702C13.0365 22.695 12.8319 22.695 12.6496 22.7702C12.5517 22.8074 12.4631 22.8657 12.3903 22.9409L10.5434 24.7878C10.3978 24.9377 10.3163 25.1385 10.3163 25.3475C10.3163 25.5565 10.3978 25.7573 10.5434 25.9073L11.1063 26.4702C10.9729 26.7048 10.8546 26.9478 10.7521 27.1975H9.97419C9.76502 27.1992 9.56489 27.283 9.41698 27.4309C9.26907 27.5788 9.18525 27.7789 9.18359 27.9881V30.6066C9.18525 30.8157 9.26907 31.0159 9.41698 31.1638C9.56489 31.3117 9.76502 31.3955 9.97419 31.3972H10.7521C10.8397 31.6501 10.9432 31.8973 11.0621 32.1372L10.4991 32.7064C10.3539 32.8553 10.2726 33.055 10.2726 33.263C10.2726 33.471 10.3539 33.6707 10.4991 33.8196L12.346 35.6664C12.4189 35.7416 12.5074 35.7999 12.6053 35.8372C12.7 35.8788 12.8023 35.9003 12.9057 35.9003C13.0092 35.9003 13.1115 35.8788 13.2062 35.8372C13.3041 35.7999 13.3926 35.7416 13.4655 35.6664L14.0284 35.1098C14.2717 35.224 14.5208 35.3253 14.7747 35.4134V36.2103C14.7764 36.4195 14.8602 36.6196 15.0081 36.7675C15.156 36.9155 15.3561 36.9993 15.5653 37.0009H18.1774C18.3877 37.0009 18.5895 36.9178 18.7387 36.7698C18.888 36.6217 18.9727 36.4206 18.9744 36.2103V35.4197C19.2283 35.3317 19.4774 35.2303 19.7207 35.1161L20.2836 35.6727C20.3565 35.748 20.445 35.8063 20.5429 35.8435C20.6376 35.8851 20.7399 35.9066 20.8433 35.9066C20.9468 35.9066 21.0491 35.8851 21.1438 35.8435C21.2417 35.8063 21.3302 35.748 21.4031 35.6727L23.2499 33.8259C23.3952 33.677 23.4765 33.4773 23.4765 33.2693C23.4765 33.0613 23.3952 32.8616 23.2499 32.7127L22.687 32.1435C22.8059 31.9036 22.9094 31.6565 22.9969 31.4035H23.7875C23.9967 31.4018 24.1968 31.318 24.3447 31.1701C24.4926 31.0222 24.5765 30.8221 24.5781 30.6129V27.9881C24.5791 27.8835 24.5575 27.78 24.5149 27.6845C24.4336 27.4939 24.2817 27.3421 24.0911 27.2608C23.9976 27.219 23.8963 27.1974 23.7938 27.1975ZM23.0033 29.816H22.4024C22.2223 29.8156 22.0478 29.8783 21.9091 29.9931C21.771 30.111 21.6754 30.271 21.6371 30.4485C21.5036 30.9496 21.2901 31.4259 21.0046 31.8589C20.911 32.011 20.8707 32.1899 20.8902 32.3675C20.9097 32.545 20.9878 32.711 21.1121 32.8392L21.5422 33.263L20.8086 33.9903L20.3721 33.5666C20.2463 33.4411 20.081 33.3629 19.9041 33.3452C19.728 33.3196 19.5486 33.3577 19.3981 33.4527C18.9567 33.7308 18.4712 33.9319 17.9624 34.0473C17.7861 34.0841 17.6277 34.1801 17.5133 34.3192C17.3949 34.4587 17.3299 34.6358 17.3299 34.8189V35.4514H16.3686V34.8189C16.3686 34.6358 16.3036 34.4587 16.1851 34.3192C16.0708 34.1801 15.9124 34.0841 15.7361 34.0473C15.2273 33.9319 14.7418 33.7308 14.3003 33.4527C14.1499 33.3577 13.9704 33.3196 13.7944 33.3452C13.6175 33.3629 13.4522 33.4411 13.3263 33.5666L12.9026 33.9903L12.1752 33.263L12.599 32.8392C12.7259 32.7137 12.8063 32.5486 12.8267 32.3712C12.8472 32.1925 12.8071 32.0121 12.7128 31.8589C12.44 31.417 12.2393 30.9345 12.1183 30.4295C12.0813 30.2514 11.9855 30.091 11.8463 29.9741C11.7051 29.8593 11.5286 29.7968 11.3467 29.797H10.7521V28.7787H11.3467C11.5286 28.7789 11.7051 28.7164 11.8463 28.6016C11.9855 28.4847 12.0813 28.3243 12.1183 28.1462C12.2505 27.6407 12.4641 27.16 12.7508 26.7232C12.8445 26.5721 12.8846 26.3938 12.8646 26.2172C12.8442 26.0398 12.7639 25.8747 12.6369 25.7491L12.2005 25.338L12.9342 24.6043L13.358 25.0281C13.4838 25.1536 13.6491 25.2318 13.826 25.2495C14.0021 25.2751 14.1815 25.237 14.332 25.142C14.7734 24.8639 15.2589 24.6628 15.7677 24.5474C15.9452 24.5091 16.1052 24.4136 16.2231 24.2755C16.3379 24.1343 16.4004 23.9578 16.4002 23.7758V23.1433H17.4311V23.7758C17.4309 23.9578 17.4934 24.1343 17.6082 24.2755C17.7261 24.4136 17.8861 24.5091 18.0636 24.5474C18.5724 24.6628 19.0579 24.8639 19.4993 25.142C19.6456 25.2233 19.8138 25.2565 19.98 25.2368C20.1452 25.2134 20.2995 25.1407 20.4227 25.0281L20.8465 24.6043L21.5802 25.338L21.1501 25.7618C21.0312 25.8895 20.9575 26.0528 20.9404 26.2265C20.9232 26.4001 20.9636 26.5746 21.0552 26.7232C21.3438 27.1681 21.5575 27.6574 21.6877 28.1715C21.726 28.349 21.8216 28.509 21.9597 28.6269C22.0984 28.7417 22.2729 28.8043 22.453 28.804H23.0539L23.0033 29.816Z" fill="#FFCC00"/>
</g>
<defs>
<clipPath id="clip0_1_2340">
<rect width="37" height="37" fill="white"/>
</clipPath>
</defs>
</svg>
