<svg width="40" height="34" viewBox="0 0 40 34" fill="none" xmlns="http://www.w3.org/2000/svg">
<g clip-path="url(#clip0_1_2348)">
<path fill-rule="evenodd" clip-rule="evenodd" d="M17.3023 19.0578C17.1975 19.0575 17.0943 19.0329 17.0006 18.986C16.907 18.9391 16.8254 18.8712 16.7624 18.7875L15.3335 16.9312C15.2431 16.8125 15.1941 16.6673 15.1941 16.518C15.1941 16.3687 15.2431 16.2235 15.3335 16.1047L16.7624 14.2484C16.8725 14.106 17.0346 14.0131 17.2131 13.9901C17.3916 13.9672 17.572 14.0161 17.7144 14.1262C17.8569 14.2362 17.9498 14.3983 17.9727 14.5768C17.9956 14.7554 17.9467 14.9357 17.8367 15.0781L16.7289 16.5242L17.8367 17.9641C17.9134 18.0645 17.9607 18.1843 17.9732 18.31C17.9857 18.4358 17.963 18.5625 17.9075 18.6761C17.852 18.7896 17.766 18.8855 17.6591 18.9529C17.5522 19.0203 17.4287 19.0567 17.3023 19.0578ZM19.9999 33.0359C15.7364 33.0372 11.6376 31.3891 8.56174 28.4366C5.4859 25.4841 3.67149 21.4562 3.49839 17.1961H0.68042C0.553908 17.1966 0.429819 17.1614 0.322336 17.0947C0.214853 17.028 0.128313 16.9323 0.0726071 16.8188C0.0152194 16.7065 -0.00894275 16.5802 0.00295853 16.4547C0.0148598 16.3291 0.0623303 16.2096 0.139795 16.1102L3.58276 11.543C3.64588 11.4594 3.72743 11.3915 3.82106 11.3447C3.9147 11.2978 4.01789 11.2731 4.12261 11.2727C4.2269 11.2718 4.32997 11.2952 4.42366 11.341C4.51735 11.3869 4.5991 11.4539 4.66245 11.5367L8.18433 16.1047C8.26298 16.2051 8.31165 16.3257 8.32473 16.4525C8.33781 16.5794 8.31477 16.7074 8.25825 16.8217C8.20174 16.936 8.11406 17.0321 8.00532 17.0987C7.89659 17.1654 7.77123 17.2 7.6437 17.1984H4.85933C5.21401 25.2453 11.8687 31.6773 20.0023 31.6773C22.4148 31.6731 24.7917 31.095 26.9367 29.9907C29.0817 28.8865 30.9332 27.2877 32.3382 25.3266C32.387 25.2469 32.4516 25.1781 32.5282 25.1245C32.6047 25.0709 32.6915 25.0337 32.7831 25.0152C32.8747 24.9967 32.9691 24.9974 33.0604 25.017C33.1517 25.0367 33.238 25.075 33.3139 25.1296C33.3897 25.1841 33.4535 25.2537 33.5012 25.3341C33.5489 25.4144 33.5795 25.5037 33.5911 25.5964C33.6027 25.6891 33.595 25.7832 33.5686 25.8728C33.5422 25.9624 33.4975 26.0456 33.4374 26.1172C31.9108 28.2575 29.8948 30.0021 27.5574 31.2055C25.2201 32.409 22.629 33.0366 19.9999 33.0359ZM35.1374 15.8406C34.7851 7.79609 28.1304 1.36094 19.9999 1.36094C17.5861 1.3641 15.2077 1.94171 13.0613 3.04602C10.9149 4.15033 9.06216 5.74963 7.6562 7.71172C7.60849 7.79375 7.54411 7.86488 7.46721 7.92049C7.39032 7.97611 7.30261 8.01499 7.20977 8.03462C7.11692 8.05425 7.02098 8.05419 6.92816 8.03446C6.83533 8.01472 6.74767 7.97575 6.67084 7.92004C6.59401 7.86434 6.52971 7.79315 6.48209 7.71106C6.43447 7.62897 6.40459 7.53781 6.39437 7.44346C6.38416 7.34911 6.39384 7.25366 6.42279 7.16329C6.45174 7.07291 6.49932 6.98961 6.56245 6.91875C8.08912 4.77843 10.1051 3.03388 12.4425 1.83041C14.7798 0.626932 17.3709 -0.000627667 19.9999 4.71072e-07C24.2634 -0.000698219 28.3619 1.64776 31.4375 4.60033C34.5131 7.5529 36.3274 11.5807 36.5007 15.8406H39.3187C39.4457 15.8409 39.5701 15.8762 39.6783 15.9426C39.7865 16.009 39.8743 16.1041 39.932 16.2172C39.9873 16.3313 40.0098 16.4585 39.9968 16.5847C39.9838 16.7108 39.9359 16.8308 39.8585 16.9312L36.3374 21.4992C36.2741 21.5821 36.1923 21.6491 36.0987 21.6949C36.005 21.7407 35.9019 21.7641 35.7976 21.7633C35.6929 21.7631 35.5897 21.7387 35.496 21.6919C35.4023 21.6452 35.3208 21.5773 35.2578 21.4937L31.8093 16.9258C31.7344 16.8245 31.6891 16.7044 31.6784 16.5789C31.6677 16.4534 31.692 16.3274 31.7487 16.2149C31.8054 16.1024 31.8922 16.0078 31.9995 15.9417C32.1067 15.8757 32.2302 15.8407 32.3562 15.8406H35.1374ZM2.03901 15.8406H6.26558L4.13433 13.0727L2.03901 15.8406ZM33.714 17.1961L35.8007 19.9688L37.9382 17.1961H33.7164H33.714ZM22.0109 29.6781H17.9882C17.8303 29.6771 17.6776 29.6217 17.5558 29.5212C17.434 29.4207 17.3506 29.2814 17.3195 29.1266L16.6445 25.625C15.6059 25.2438 14.6409 24.6861 13.7921 23.9766L10.4226 25.1484C10.2728 25.2007 10.1094 25.1988 9.96087 25.1431C9.81231 25.0875 9.68793 24.9816 9.60933 24.8438L7.59917 21.3531C7.52028 21.2158 7.49171 21.0552 7.51837 20.8991C7.54503 20.743 7.62526 20.601 7.74526 20.4977L10.4398 18.1633C10.2523 17.0744 10.2523 15.9615 10.4398 14.8727L7.74526 12.5383C7.6252 12.4351 7.5449 12.2933 7.51823 12.1373C7.49156 11.9812 7.52018 11.8208 7.59917 11.6836L9.60933 8.19609C9.68792 8.05826 9.81225 7.95226 9.96079 7.89646C10.1093 7.84067 10.2727 7.83861 10.4226 7.89063L13.7976 9.0625C14.6434 8.3515 15.6068 7.79365 16.6445 7.41406L17.3195 3.91484C17.3504 3.76037 17.434 3.62141 17.5559 3.52167C17.6779 3.42194 17.8307 3.36762 17.9882 3.36797H22.0109C22.1684 3.36762 22.3212 3.42194 22.4432 3.52167C22.5651 3.62141 22.6487 3.76037 22.6796 3.91484L23.3546 7.41406C24.3934 7.79482 25.3584 8.35254 26.207 9.0625L29.5765 7.89063C29.7257 7.83919 29.8882 7.8414 30.0359 7.89687C30.1836 7.95235 30.3074 8.05761 30.3859 8.19453L32.3999 11.682C32.4784 11.8189 32.5072 11.9787 32.4816 12.1344C32.456 12.2901 32.3775 12.4322 32.2593 12.5367L29.5593 14.8711C29.7468 15.96 29.7468 17.0729 29.5593 18.1617L32.2593 20.4961C32.3775 20.6008 32.4561 20.743 32.4817 20.8988C32.5073 21.0547 32.4784 21.2145 32.3999 21.3516L30.3859 24.8438C30.3074 24.9806 30.1836 25.0858 30.0358 25.1412C29.8881 25.1965 29.7256 25.1985 29.5765 25.1469L26.207 23.975C25.3583 24.6851 24.3933 25.2433 23.3546 25.625L22.6796 29.1289C22.6481 29.2833 22.5644 29.4221 22.4427 29.5221C22.3209 29.6221 22.1684 29.6772 22.0109 29.6781ZM18.5453 28.3164H21.4539L22.0953 24.9813C22.116 24.8613 22.1696 24.7495 22.25 24.6581C22.3303 24.5666 22.4344 24.4992 22.5507 24.4633C23.681 24.0991 24.72 23.4968 25.5976 22.6969C25.6887 22.6158 25.7999 22.5606 25.9195 22.537C26.0392 22.5133 26.163 22.5222 26.2781 22.5625L29.4906 23.6758L30.9414 21.1617L28.371 18.9344C28.2797 18.8549 28.2112 18.7524 28.1726 18.6376C28.134 18.5228 28.1267 18.3998 28.1515 18.2812C28.3994 17.1206 28.3994 15.9208 28.1515 14.7602C28.1262 14.6409 28.1332 14.517 28.1718 14.4014C28.2104 14.2857 28.2792 14.1825 28.371 14.1023L30.9429 11.875L29.4921 9.36016L26.2796 10.4742C26.1645 10.5146 26.0406 10.5234 25.9209 10.4996C25.8012 10.4759 25.6901 10.4204 25.5992 10.3391C24.7215 9.53916 23.6825 8.93681 22.5523 8.57266C22.4361 8.53676 22.3321 8.46948 22.2517 8.37821C22.1713 8.28695 22.1177 8.17526 22.0968 8.05547L21.4554 4.71953H18.5453L17.9039 8.05547C17.8829 8.17526 17.8293 8.28695 17.749 8.37821C17.6686 8.46948 17.5646 8.53676 17.4484 8.57266C16.3181 8.93681 15.2791 9.53916 14.4015 10.3391C14.3106 10.4204 14.1994 10.4759 14.0797 10.4996C13.9601 10.5234 13.8362 10.5146 13.721 10.4742L10.5085 9.36016L9.0562 11.875L11.6265 14.1031C11.7184 14.1833 11.7872 14.2865 11.8258 14.4022C11.8644 14.5178 11.8714 14.6417 11.846 14.7609C11.5981 15.9215 11.5981 17.1214 11.846 18.282C11.8708 18.4006 11.8635 18.5236 11.8249 18.6384C11.7864 18.7532 11.7179 18.8556 11.6265 18.9352L9.0562 21.1625L10.507 23.6766L13.7195 22.5633C13.8346 22.5229 13.9584 22.5141 14.078 22.5378C14.1977 22.5614 14.3088 22.6166 14.4 22.6977C15.2762 23.4995 16.3156 24.1021 17.4468 24.4641C17.5631 24.5 17.6672 24.5674 17.7476 24.6588C17.828 24.7502 17.8815 24.8621 17.9023 24.982L18.5453 28.3164ZM19.9999 23.5687C18.6059 23.5687 17.2431 23.1553 16.084 22.3808C14.9248 21.6063 14.0214 20.5054 13.488 19.2175C12.9545 17.9295 12.815 16.5122 13.087 15.1449C13.359 13.7777 14.0304 12.5217 15.0162 11.536C16.002 10.5503 17.258 9.87909 18.6253 9.60721C19.9927 9.33534 21.4099 9.47503 22.6978 10.0086C23.9857 10.5422 25.0865 11.4458 25.8609 12.605C26.6353 13.7642 27.0485 15.127 27.0484 16.5211C27.0453 18.3894 26.3017 20.1803 24.9805 21.5014C23.6593 22.8224 21.8683 23.5659 19.9999 23.5687ZM19.9999 10.8281C18.8746 10.8275 17.7743 11.1606 16.8383 11.7853C15.9023 12.41 15.1725 13.2982 14.7413 14.3377C14.3101 15.3771 14.1968 16.5211 14.4157 17.6249C14.6346 18.7288 15.176 19.7429 15.9713 20.5391C16.7666 21.3353 17.7801 21.8777 18.8837 22.0979C19.9873 22.318 21.1314 22.206 22.1713 21.7759C23.2113 21.3458 24.1003 20.617 24.726 19.6817C25.3517 18.7463 25.686 17.6464 25.6867 16.5211C25.6852 15.0128 25.0858 13.5665 24.0198 12.4994C22.9539 11.4322 21.5083 10.8312 19.9999 10.8281ZM19.2687 19.6313C19.2039 19.6303 19.1396 19.6209 19.0773 19.6031C18.9915 19.5783 18.9116 19.5367 18.8421 19.4807C18.7726 19.4247 18.7149 19.3554 18.6725 19.2768C18.6301 19.1983 18.6038 19.112 18.5951 19.0232C18.5864 18.9344 18.5955 18.8447 18.6218 18.7594L20.0781 13.8883C20.1037 13.8026 20.146 13.7228 20.2025 13.6535C20.259 13.5842 20.3285 13.5266 20.4072 13.4842C20.486 13.4418 20.5723 13.4153 20.6612 13.4062C20.7502 13.3971 20.8401 13.4056 20.9257 13.4312C21.0114 13.4569 21.0912 13.4992 21.1605 13.5556C21.2298 13.6121 21.2874 13.6817 21.3298 13.7604C21.3722 13.8391 21.3988 13.9254 21.4078 14.0144C21.4169 14.1034 21.4084 14.1932 21.3828 14.2789L19.9218 19.1477C19.879 19.2871 19.7928 19.4092 19.6758 19.4962C19.5587 19.5832 19.4169 19.6305 19.271 19.6313H19.2687ZM22.6945 19.0578C22.5681 19.0567 22.4445 19.0203 22.3377 18.9529C22.2308 18.8855 22.1448 18.7896 22.0893 18.6761C22.0338 18.5625 22.011 18.4358 22.0235 18.31C22.0361 18.1843 22.0833 18.0645 22.1601 17.9641L23.2679 16.5242L22.1624 15.0781C22.0528 14.9357 22.0043 14.7555 22.0275 14.5773C22.0508 14.3991 22.1438 14.2373 22.2863 14.1277C22.4287 14.0181 22.6089 13.9696 22.7871 13.9928C22.9653 14.016 23.1271 14.1091 23.2367 14.2516L24.6656 16.1078C24.7561 16.2266 24.805 16.3718 24.805 16.5211C24.805 16.6704 24.7561 16.8156 24.6656 16.9344L23.2367 18.7969C23.1725 18.8787 23.0906 18.9447 22.997 18.9899C22.9034 19.0352 22.8007 19.0584 22.6968 19.0578H22.6945Z" fill="#FFCC00"/>
</g>
<defs>
<clipPath id="clip0_1_2348">
<rect width="40" height="33.0359" fill="white"/>
</clipPath>
</defs>
</svg>
