<svg width="37" height="34" viewBox="0 0 37 34" fill="none" xmlns="http://www.w3.org/2000/svg">
<g clip-path="url(#clip0_1_2278)">
<path d="M36.2449 27.9388H34.7347V8.9608C34.7337 8.18668 34.4257 7.44455 33.8783 6.89716C33.331 6.34978 32.5888 6.04182 31.8147 6.04082H23.4082V4.90816C23.4082 3.60644 22.8911 2.35803 21.9706 1.43757C21.0501 0.517109 19.8017 0 18.5 0C17.1983 0 15.9499 0.517109 15.0294 1.43757C14.1089 2.35803 13.5918 3.60644 13.5918 4.90816V6.04082H5.18529C4.41117 6.04182 3.66904 6.34978 3.12165 6.89716C2.57427 7.44455 2.26631 8.18668 2.26531 8.9608V27.9388H0.755102C0.554837 27.9388 0.362773 28.0183 0.221164 28.1599C0.0795552 28.3015 0 28.4936 0 28.6939C0.00159882 30.0952 0.558998 31.4388 1.54992 32.4297C2.54083 33.4206 3.88435 33.978 5.28571 33.9796H31.7143C33.1157 33.978 34.4592 33.4206 35.4501 32.4297C36.441 31.4388 36.9984 30.0952 37 28.6939C37 28.4936 36.9204 28.3015 36.7788 28.1599C36.6372 28.0183 36.4452 27.9388 36.2449 27.9388ZM15.102 15.8571V14.3469H21.898V15.8571H15.102ZM13.5918 18.1224H11.3265V15.8571C11.3274 15.1878 11.5503 14.5376 11.9602 14.0084C12.3701 13.4792 12.9439 13.1009 13.5918 12.9326V18.1224ZM23.4082 12.9326C24.0561 13.1009 24.6299 13.4792 25.0398 14.0084C25.4497 14.5376 25.6726 15.1878 25.6735 15.8571V18.1224H23.4082V12.9326ZM15.102 4.90816C15.102 4.00697 15.46 3.14268 16.0973 2.50544C16.7345 1.8682 17.5988 1.5102 18.5 1.5102C19.4012 1.5102 20.2655 1.8682 20.9027 2.50544C21.54 3.14268 21.898 4.00697 21.898 4.90816V12.8367H15.102V4.90816ZM3.77551 8.9608C3.77571 8.58696 3.9243 8.2285 4.18864 7.96416C4.45299 7.69981 4.81145 7.55122 5.18529 7.55102H13.5918V11.3907C12.5368 11.5703 11.5792 12.117 10.8883 12.9344C10.1974 13.7517 9.81772 14.7869 9.81633 15.8571V18.8776C9.81633 19.0778 9.89588 19.2699 10.0375 19.4115C10.1791 19.5531 10.3712 19.6327 10.5714 19.6327H14.3469C14.5472 19.6327 14.7393 19.5531 14.8809 19.4115C15.0225 19.2699 15.102 19.0778 15.102 18.8776V17.3673H16.6122V23.4082C16.6122 23.6084 16.6918 23.8005 16.8334 23.9421C16.975 24.0837 17.1671 24.1633 17.3673 24.1633C17.5676 24.1633 17.7597 24.0837 17.9013 23.9421C18.0429 23.8005 18.1224 23.6084 18.1224 23.4082V17.3673H21.898V18.8776C21.898 19.0778 21.9775 19.2699 22.1191 19.4115C22.2607 19.5531 22.4528 19.6327 22.6531 19.6327H26.4286C26.6288 19.6327 26.8209 19.5531 26.9625 19.4115C27.1041 19.2699 27.1837 19.0778 27.1837 18.8776V15.8571C27.1823 14.7869 26.8026 13.7517 26.1117 12.9344C25.4208 12.117 24.4632 11.5703 23.4082 11.3907V7.55102H31.8147C32.1885 7.55122 32.547 7.69981 32.8114 7.96416C33.0757 8.2285 33.2243 8.58696 33.2245 8.9608V27.9388H31.7143V9.81633C31.7143 9.61606 31.6347 9.424 31.4931 9.28239C31.3515 9.14078 31.1594 9.06122 30.9592 9.06122H26.4286C26.2283 9.06122 26.0362 9.14078 25.8946 9.28239C25.753 9.424 25.6735 9.61606 25.6735 9.81633C25.6735 10.0166 25.753 10.2087 25.8946 10.3503C26.0362 10.4919 26.2283 10.5714 26.4286 10.5714H30.2041V27.9388H21.1429V21.898C21.1429 21.6977 21.0633 21.5056 20.9217 21.364C20.7801 21.2224 20.588 21.1429 20.3878 21.1429C20.1875 21.1429 19.9954 21.2224 19.8538 21.364C19.7122 21.5056 19.6327 21.6977 19.6327 21.898V27.9388H6.79592V10.5714H10.5714C10.7717 10.5714 10.9638 10.4919 11.1054 10.3503C11.247 10.2087 11.3265 10.0166 11.3265 9.81633C11.3265 9.61606 11.247 9.424 11.1054 9.28239C10.9638 9.14078 10.7717 9.06122 10.5714 9.06122H6.04082C5.84055 9.06122 5.64849 9.14078 5.50688 9.28239C5.36527 9.424 5.28571 9.61606 5.28571 9.81633V27.9388H3.77551V8.9608ZM31.7143 32.4694H5.28571C4.41572 32.4681 3.57274 32.1671 2.89879 31.6169C2.22483 31.0668 1.7611 30.3011 1.58571 29.449H35.4143C35.239 30.3012 34.7753 31.0669 34.1014 31.6171C33.4274 32.1673 32.5843 32.4683 31.7143 32.4694Z" fill="#FFCC00"/>
<path d="M18.5 11.3267C19.0227 11.3267 19.5337 11.1717 19.9683 10.8813C20.4029 10.5909 20.7417 10.1782 20.9417 9.69525C21.1417 9.21233 21.1941 8.68094 21.0921 8.16828C20.9901 7.65561 20.7384 7.1847 20.3688 6.81509C19.9992 6.44548 19.5283 6.19377 19.0156 6.0918C18.503 5.98982 17.9716 6.04216 17.4887 6.24219C17.0057 6.44222 16.593 6.78097 16.3026 7.21558C16.0122 7.6502 15.8572 8.16117 15.8572 8.68387C15.8572 9.3848 16.1356 10.057 16.6313 10.5527C17.1269 11.0483 17.7991 11.3267 18.5 11.3267ZM18.5 7.55122C18.7241 7.55122 18.943 7.61765 19.1293 7.74211C19.3156 7.86656 19.4607 8.04346 19.5465 8.25043C19.6322 8.45739 19.6546 8.68513 19.6109 8.90484C19.5672 9.12456 19.4593 9.32638 19.3009 9.48478C19.1425 9.64319 18.9407 9.75106 18.721 9.79476C18.5013 9.83847 18.2736 9.81604 18.0666 9.73031C17.8596 9.64458 17.6827 9.49941 17.5583 9.31314C17.4338 9.12688 17.3674 8.90789 17.3674 8.68387C17.3674 8.38348 17.4867 8.09538 17.6991 7.88297C17.9115 7.67055 18.1996 7.55122 18.5 7.55122Z" fill="#FFCC00"/>
</g>
<defs>
<clipPath id="clip0_1_2278">
<rect width="37" height="33.9796" fill="white"/>
</clipPath>
</defs>
</svg>
