<svg width="37" height="37" viewBox="0 0 37 37" fill="none" xmlns="http://www.w3.org/2000/svg">
<g clip-path="url(#clip0_1_2265)">
<path d="M8.62202 31.461L7.7794 32.1533C7.74094 32.1852 7.69197 32.2015 7.6421 32.1991C7.59223 32.1967 7.54506 32.1757 7.50985 32.1403L4.86059 29.4918C4.82535 29.4565 4.8045 29.4094 4.80209 29.3595C4.79969 29.3097 4.8159 29.2608 4.84758 29.2223L7.50985 25.9797C7.67449 25.7819 7.77527 25.5389 7.79888 25.2826C7.82249 25.0264 7.76783 24.769 7.6421 24.5445C7.17841 23.7123 6.81226 22.8294 6.55089 21.9133C6.48191 21.665 6.33936 21.4434 6.142 21.2776C5.94465 21.1119 5.70173 21.0097 5.44522 20.9847L1.26538 20.5742C1.21561 20.5695 1.16939 20.5464 1.13583 20.5093C1.10226 20.4723 1.08377 20.424 1.08399 20.3741V16.6278C1.08393 16.5779 1.10248 16.5297 1.13602 16.4927C1.16955 16.4557 1.21567 16.4325 1.26538 16.4276L5.44522 16.0172C5.70173 15.9921 5.94465 15.89 6.142 15.7242C6.33936 15.5585 6.48191 15.3369 6.55089 15.0885C6.81226 14.1724 7.17841 13.2895 7.6421 12.4573C7.76783 12.2328 7.82249 11.9755 7.79888 11.7192C7.77527 11.463 7.67449 11.2199 7.50985 11.0222L4.84758 7.7796C4.8159 7.74107 4.79969 7.69213 4.80209 7.64231C4.8045 7.59249 4.82535 7.54534 4.86059 7.51005L7.50985 4.86151C7.54515 4.82627 7.59229 4.80541 7.64212 4.80301C7.69194 4.8006 7.74087 4.81682 7.7794 4.8485L8.41317 5.36881C8.46802 5.41513 8.53154 5.45009 8.60001 5.47166C8.66849 5.49323 8.74057 5.50098 8.81207 5.49446C8.88357 5.48794 8.95306 5.46728 9.01651 5.43368C9.07995 5.40007 9.13609 5.3542 9.18166 5.29872C9.22723 5.24324 9.26132 5.17927 9.28196 5.1105C9.3026 5.04174 9.30937 4.96956 9.30188 4.89815C9.29438 4.82675 9.27278 4.75755 9.23832 4.69456C9.20386 4.63158 9.15723 4.57607 9.10114 4.53126L8.46665 4.01022C8.22058 3.8068 7.90737 3.70269 7.58849 3.71834C7.26961 3.73398 6.96809 3.86824 6.74311 4.09477L4.09385 6.74403C3.86747 6.96909 3.73331 7.27058 3.71767 7.58942C3.70203 7.90825 3.80604 8.22143 4.0093 8.46756L6.67157 11.708C6.69625 11.7378 6.71165 11.7743 6.71589 11.8128C6.72013 11.8513 6.71301 11.8902 6.69542 11.9248C6.1907 12.8297 5.79228 13.79 5.50809 14.7865C5.4978 14.8248 5.47614 14.8592 5.44595 14.885C5.41577 14.9108 5.37848 14.9268 5.33899 14.931L1.15626 15.3494C0.838988 15.3804 0.544666 15.5285 0.330836 15.7649C0.117005 16.0014 -0.000959542 16.309 5.87919e-06 16.6278V20.3741C-0.000959542 20.6928 0.117005 21.0005 0.330836 21.2369C0.544666 21.4733 0.838988 21.6215 1.15626 21.6524L5.3361 22.0636C5.37559 22.0678 5.41288 22.0839 5.44306 22.1097C5.47325 22.1355 5.49491 22.1698 5.5052 22.2081C5.78939 23.2046 6.18781 24.1649 6.69253 25.0699C6.71012 25.1044 6.71724 25.1433 6.713 25.1818C6.70876 25.2204 6.69336 25.2568 6.66868 25.2867L4.0093 28.5343C3.80604 28.7804 3.70203 29.0936 3.71767 29.4124C3.73331 29.7313 3.86747 30.0328 4.09385 30.2578L6.74311 32.9064C6.96809 33.1329 7.26961 33.2671 7.58849 33.2828C7.90737 33.2984 8.22058 33.1943 8.46665 32.9909L9.30999 32.2993C9.42115 32.2081 9.49152 32.0764 9.50561 31.9333C9.51971 31.7902 9.47637 31.6474 9.38514 31.5362C9.29391 31.425 9.16226 31.3547 9.01915 31.3406C8.87603 31.3265 8.73318 31.3698 8.62202 31.461Z" fill="#FFCC00"/>
<path d="M35.8438 15.3485L31.664 14.9373C31.6245 14.933 31.5872 14.9169 31.5569 14.8911C31.5266 14.8653 31.5048 14.8311 31.4942 14.7928C31.2105 13.7962 30.8123 12.8359 30.3076 11.9311C30.29 11.8965 30.2828 11.8576 30.2871 11.8191C30.2913 11.7806 30.3067 11.7441 30.3314 11.7143L32.9937 8.47171C33.1969 8.22557 33.3009 7.91239 33.2853 7.59356C33.2697 7.27473 33.1355 6.97323 32.9091 6.74817L30.257 4.09386C30.0318 3.86762 29.7304 3.73357 29.4116 3.71793C29.0928 3.70229 28.7796 3.8062 28.5334 4.00931L25.293 6.67157C25.2632 6.69625 25.2267 6.71166 25.1882 6.71589C25.1497 6.72013 25.1108 6.71301 25.0762 6.69542C24.1714 6.19063 23.2111 5.79244 22.2145 5.50882C22.1762 5.4983 22.1419 5.47648 22.1161 5.44619C22.0903 5.41589 22.0742 5.37854 22.07 5.33899L21.6516 1.15626C21.6208 0.838927 21.4727 0.544511 21.2362 0.330649C20.9998 0.116787 20.692 -0.00112138 20.3732 8.03935e-06H16.6269C16.3082 -0.000957382 16.0005 0.117007 15.7641 0.330838C15.5277 0.544669 15.3795 0.83899 15.3486 1.15626L14.9374 5.33899C14.9332 5.37848 14.9171 5.41577 14.8913 5.44596C14.8655 5.47614 14.8312 5.49781 14.7928 5.50809C13.7964 5.79228 12.8361 6.1907 11.9311 6.69542C11.8966 6.71301 11.8577 6.72013 11.8192 6.71589C11.7806 6.71166 11.7442 6.69625 11.7143 6.67157L10.9194 6.02118C10.8082 5.92995 10.6654 5.88662 10.5223 5.90071C10.3792 5.9148 10.2475 5.98517 10.1563 6.09634C10.0651 6.2075 10.0217 6.35035 10.0358 6.49346C10.0499 6.63658 10.1203 6.76823 10.2314 6.85946L11.0264 7.50985C11.2241 7.67434 11.467 7.77503 11.7231 7.79864C11.9792 7.82225 12.2364 7.76767 12.4608 7.6421C13.293 7.17842 14.1759 6.81226 15.092 6.55089C15.3404 6.48191 15.562 6.33936 15.7277 6.14201C15.8935 5.94465 15.9956 5.70173 16.0206 5.44522L16.4318 1.26538C16.4364 1.21647 16.4589 1.17096 16.4948 1.13751C16.5308 1.10407 16.5778 1.08502 16.6269 1.08399H20.3732C20.4232 1.08377 20.4715 1.10226 20.5085 1.13583C20.5455 1.1694 20.5687 1.21561 20.5734 1.26538L20.9838 5.44522C21.0089 5.70173 21.111 5.94465 21.2768 6.14201C21.4425 6.33936 21.6641 6.48191 21.9125 6.55089C22.8286 6.81226 23.7115 7.17842 24.5436 7.6421C24.7683 7.76743 25.0256 7.82188 25.2817 7.79827C25.5379 7.77467 25.7809 7.67413 25.9788 7.50985L29.2214 4.84759C29.2599 4.81575 29.3088 4.79943 29.3587 4.80184C29.4086 4.80425 29.4557 4.8252 29.491 4.86059L32.1395 7.50985C32.175 7.54498 32.1961 7.59218 32.1985 7.64209C32.2009 7.69201 32.1845 7.74101 32.1525 7.7794L29.491 11.022C29.3264 11.2196 29.2257 11.4625 29.2019 11.7186C29.1782 11.9746 29.2326 12.2319 29.358 12.4564C29.8217 13.2886 30.1878 14.1715 30.4492 15.0876C30.5183 15.3359 30.6608 15.5575 30.8582 15.7232C31.0555 15.8889 31.2984 15.9911 31.5549 16.0162L35.7347 16.4274C35.7843 16.4321 35.8305 16.4552 35.864 16.492C35.8976 16.5289 35.9161 16.577 35.9161 16.6269V20.3731C35.9163 20.423 35.8979 20.4712 35.8645 20.5082C35.8311 20.5452 35.7851 20.5684 35.7354 20.5733L31.5549 20.9838C31.2984 21.0089 31.0555 21.1111 30.8582 21.2768C30.6608 21.4425 30.5183 21.6641 30.4492 21.9124C30.1881 22.8286 29.822 23.7115 29.358 24.5436C29.2326 24.7682 29.1781 25.0256 29.2019 25.2818C29.2256 25.538 29.3264 25.781 29.491 25.9788L32.1525 29.2213C32.1845 29.2597 32.2009 29.3087 32.1985 29.3586C32.1961 29.4086 32.175 29.4558 32.1395 29.4909L29.491 32.1394C29.4558 32.175 29.4086 32.196 29.3587 32.1984C29.3088 32.2008 29.2598 32.1844 29.2214 32.1524L25.9788 29.4909C25.7811 29.3263 25.5381 29.2255 25.2819 29.2018C25.0257 29.1781 24.7683 29.2325 24.5436 29.3579C23.7116 29.8219 22.8287 30.1881 21.9125 30.4491C21.6642 30.5182 21.4426 30.6608 21.2769 30.8581C21.1111 31.0554 21.009 31.2983 20.9838 31.5548L20.5734 35.7354C20.5687 35.7851 20.5455 35.8312 20.5084 35.8646C20.4714 35.8981 20.4231 35.9164 20.3732 35.916H16.6269C16.5772 35.9161 16.5292 35.8976 16.4923 35.8642C16.4555 35.8308 16.4323 35.7849 16.4275 35.7354L16.0163 31.5548C15.9912 31.2983 15.889 31.0554 15.7233 30.8581C15.5575 30.6608 15.336 30.5182 15.0877 30.4491C14.1714 30.1884 13.2884 29.8222 12.4565 29.3579C12.232 29.2325 11.9747 29.1781 11.7186 29.2019C11.4626 29.2256 11.2197 29.3264 11.022 29.4909L10.4352 29.9722C10.3241 30.0633 10.2537 30.1949 10.2395 30.3379C10.2253 30.481 10.2686 30.6238 10.3597 30.7349C10.4508 30.8461 10.5824 30.9165 10.7255 30.9307C10.8685 30.9448 11.0113 30.9016 11.1225 30.8105L11.7093 30.3284C11.7391 30.3038 11.7756 30.2884 11.8141 30.2841C11.8526 30.2799 11.8915 30.287 11.9261 30.3046C12.8311 30.8092 13.7914 31.2076 14.7878 31.4919C14.826 31.5024 14.8603 31.5241 14.886 31.5543C14.9118 31.5844 14.9279 31.6216 14.9323 31.661L15.3486 35.8438C15.3794 36.1611 15.5275 36.4555 15.7639 36.6694C16.0004 36.8832 16.3081 37.0011 16.6269 37H20.3732C20.6921 37.0013 20.9999 36.8835 21.2364 36.6696C21.4729 36.4557 21.621 36.1612 21.6516 35.8438L22.0628 31.6639C22.0672 31.6245 22.0833 31.5873 22.109 31.5571C22.1348 31.527 22.169 31.5053 22.2073 31.4948C23.2037 31.2105 24.164 30.8121 25.069 30.3075C25.1035 30.2899 25.1425 30.2828 25.181 30.287C25.2195 30.2913 25.2559 30.3067 25.2858 30.3313L28.5284 32.9936C28.7745 33.1969 29.0877 33.3009 29.4065 33.2852C29.7254 33.2696 30.0269 33.1354 30.2519 32.9091L32.9004 30.2598C33.1271 30.0349 33.2615 29.7334 33.2773 29.4146C33.293 29.0957 33.1891 28.7824 32.9857 28.5363L30.3285 25.293C30.3037 25.2632 30.2881 25.2267 30.2839 25.1882C30.2797 25.1496 30.2869 25.1107 30.3047 25.0762C30.8093 24.171 31.2075 23.2105 31.4913 22.2137C31.5019 22.1754 31.5237 22.1412 31.554 22.1154C31.5843 22.0896 31.6216 22.0736 31.6611 22.0692L35.8438 21.6522C36.1612 21.6211 36.4555 21.4728 36.6693 21.2363C36.8831 20.9997 37.0011 20.692 37.0001 20.3731V16.6269C37.001 16.3081 36.8831 16.0004 36.6692 15.764C36.4554 15.5276 36.1611 15.3794 35.8438 15.3485Z" fill="#FFCC00"/>
<path d="M7.76855 18.501C7.76855 24.4181 12.5829 29.2324 18.5 29.2324C20.9909 29.231 23.404 28.3646 25.3269 26.7812C25.4379 26.6897 25.508 26.558 25.5218 26.4149C25.5357 26.2718 25.4921 26.129 25.4006 26.018C25.3092 25.9071 25.1775 25.837 25.0343 25.8231C24.8912 25.8093 24.7485 25.8529 24.6375 25.9443C22.9088 27.3679 20.7394 28.1469 18.5 28.1484C13.1805 28.1484 8.85254 23.8204 8.85254 18.501C8.85254 13.1815 13.1805 8.85352 18.5 8.85352C23.8195 8.85352 28.1475 13.1815 28.1475 18.501C28.1538 20.6078 27.4641 22.6577 26.1854 24.3321C26.0984 24.4466 26.0605 24.591 26.0799 24.7335C26.0994 24.876 26.1746 25.0049 26.2892 25.092C26.4037 25.179 26.5481 25.2169 26.6906 25.1975C26.8331 25.178 26.962 25.1028 27.049 24.9883C28.4714 23.1254 29.2386 20.8448 29.2314 18.501C29.2314 12.5839 24.4171 7.76953 18.5 7.76953C12.5829 7.76953 7.76855 12.5839 7.76855 18.501Z" fill="#FFCC00"/>
<path d="M18.5001 10.2109C16.8607 10.2109 15.2581 10.6971 13.895 11.6079C12.5319 12.5187 11.4695 13.8132 10.8421 15.3278C10.2148 16.8424 10.0506 18.509 10.3705 20.1169C10.6903 21.7248 11.4797 23.2017 12.6389 24.3609C13.7982 25.5201 15.2751 26.3096 16.883 26.6294C18.4909 26.9492 20.1575 26.7851 21.6721 26.1577C23.1867 25.5304 24.4812 24.4679 25.392 23.1049C26.3028 21.7418 26.7889 20.1392 26.7889 18.4998C26.7866 16.3022 25.9126 14.1952 24.3586 12.6412C22.8047 11.0873 20.6977 10.2132 18.5001 10.2109ZM18.5001 25.7047C17.0751 25.7047 15.6821 25.2821 14.4972 24.4904C13.3124 23.6988 12.3889 22.5735 11.8436 21.257C11.2983 19.9405 11.1556 18.4918 11.4336 17.0942C11.7116 15.6966 12.3978 14.4128 13.4054 13.4052C14.4131 12.3976 15.6968 11.7114 17.0945 11.4334C18.4921 11.1554 19.9407 11.298 21.2572 11.8434C22.5738 12.3887 23.699 13.3121 24.4907 14.497C25.2824 15.6818 25.7049 17.0748 25.7049 18.4998C25.7028 20.41 24.9431 22.2414 23.5924 23.5921C22.2416 24.9428 20.4103 25.7026 18.5001 25.7047Z" fill="#FFCC00"/>
<path d="M21.8242 21.0868H19.2552V21.0752C19.2552 20.9315 19.1981 20.7936 19.0964 20.6919C18.9948 20.5903 18.8569 20.5332 18.7132 20.5332C18.5694 20.5332 18.4316 20.5903 18.3299 20.6919C18.2283 20.7936 18.1712 20.9315 18.1712 21.0752V21.0868H15.1758C15.032 21.0868 14.8942 21.1439 14.7925 21.2455C14.6909 21.3471 14.6338 21.485 14.6338 21.6287C14.6338 21.7725 14.6909 21.9104 14.7925 22.012C14.8942 22.1136 15.032 22.1707 15.1758 22.1707H18.1705V22.1852C18.1705 22.3289 18.2276 22.4668 18.3292 22.5684C18.4309 22.6701 18.5687 22.7272 18.7125 22.7272C18.8562 22.7272 18.9941 22.6701 19.0957 22.5684C19.1973 22.4668 19.2545 22.3289 19.2545 22.1852V22.1729H21.8242C21.968 22.1729 22.1058 22.1158 22.2075 22.0142C22.3091 21.9125 22.3662 21.7747 22.3662 21.6309C22.3662 21.4872 22.3091 21.3493 22.2075 21.2477C22.1058 21.146 21.968 21.0889 21.8242 21.0889V21.0868Z" fill="#FFCC00"/>
<path d="M21.8242 17.9586H21.3516V17.9463C21.3516 17.8025 21.2945 17.6647 21.1929 17.563C21.0912 17.4614 20.9534 17.4043 20.8096 17.4043C20.6659 17.4043 20.528 17.4614 20.4264 17.563C20.3247 17.6647 20.2676 17.8025 20.2676 17.9463V17.9586H15.1758C15.032 17.9586 14.8942 18.0157 14.7925 18.1173C14.6909 18.219 14.6338 18.3568 14.6338 18.5006C14.6338 18.6443 14.6909 18.7822 14.7925 18.8838C14.8942 18.9855 15.032 19.0426 15.1758 19.0426H20.2662V19.0548C20.2662 19.1986 20.3233 19.3364 20.4249 19.4381C20.5266 19.5397 20.6644 19.5968 20.8082 19.5968C20.9519 19.5968 21.0898 19.5397 21.1914 19.4381C21.2931 19.3364 21.3502 19.1986 21.3502 19.0548V19.0426H21.8242C21.968 19.0426 22.1058 18.9855 22.2075 18.8838C22.3091 18.7822 22.3662 18.6443 22.3662 18.5006C22.3662 18.3568 22.3091 18.219 22.2075 18.1173C22.1058 18.0157 21.968 17.9586 21.8242 17.9586Z" fill="#FFCC00"/>
<path d="M21.8242 14.8299H17.476V14.8154C17.476 14.6717 17.4189 14.5338 17.3173 14.4322C17.2156 14.3305 17.0777 14.2734 16.934 14.2734C16.7903 14.2734 16.6524 14.3305 16.5508 14.4322C16.4491 14.5338 16.392 14.6717 16.392 14.8154V14.8277H15.1758C15.032 14.8277 14.8942 14.8848 14.7925 14.9865C14.6909 15.0881 14.6338 15.226 14.6338 15.3697C14.6338 15.5135 14.6909 15.6513 14.7925 15.753C14.8942 15.8546 15.032 15.9117 15.1758 15.9117H16.3913V15.9233C16.3913 16.067 16.4484 16.2049 16.55 16.3065C16.6517 16.4082 16.7895 16.4653 16.9333 16.4653C17.077 16.4653 17.2149 16.4082 17.3165 16.3065C17.4182 16.2049 17.4753 16.067 17.4753 15.9233V15.9117H21.8242C21.968 15.9117 22.1058 15.8546 22.2075 15.753C22.3091 15.6513 22.3662 15.5135 22.3662 15.3697C22.3662 15.226 22.3091 15.0881 22.2075 14.9865C22.1058 14.8848 21.968 14.8277 21.8242 14.8277V14.8299Z" fill="#FFCC00"/>
<path d="M18.4999 5.59571H18.5043C18.648 5.59638 18.7861 5.53992 18.8883 5.43875C18.9904 5.33758 19.0481 5.19999 19.0488 5.05624C19.0495 4.9125 18.993 4.77438 18.8918 4.67226C18.7907 4.57014 18.6531 4.51239 18.5093 4.51172H18.4963C18.3526 4.51115 18.2145 4.5677 18.1124 4.66894C18.0104 4.77017 17.9527 4.9078 17.9522 5.05155C17.9516 5.19529 18.0081 5.33338 18.1094 5.43543C18.2106 5.53748 18.3482 5.59513 18.492 5.59571H18.4999Z" fill="#FFCC00"/>
<path d="M18.5001 31.4043C18.3563 31.4036 18.2182 31.4601 18.1161 31.5613C18.014 31.6624 17.9562 31.8 17.9556 31.9438C17.9549 32.0875 18.0114 32.2256 18.1125 32.3278C18.2137 32.4299 18.3513 32.4876 18.495 32.4883H18.508C18.6518 32.4889 18.7899 32.4323 18.8919 32.3311C18.994 32.2298 19.0516 32.0922 19.0522 31.9485C19.0528 31.8047 18.9962 31.6666 18.895 31.5646C18.7938 31.4625 18.6561 31.4049 18.5124 31.4043H18.5001Z" fill="#FFCC00"/>
<path d="M31.9415 19.0451H31.9465C32.0893 19.0451 32.2264 18.9886 32.3277 18.8881C32.4291 18.7875 32.4867 18.6509 32.4878 18.5081V18.4995C32.4884 18.4283 32.4749 18.3577 32.4482 18.2917C32.4215 18.2257 32.3821 18.1657 32.3321 18.1149C32.2822 18.0642 32.2228 18.0238 32.1572 17.996C32.0917 17.9683 32.0213 17.9537 31.9501 17.9531H31.9451C31.8023 17.9531 31.6653 18.0096 31.5639 18.1101C31.4625 18.2107 31.405 18.3473 31.4038 18.4901V18.4995C31.4029 18.6431 31.4589 18.7812 31.5598 18.8835C31.6606 18.9858 31.7979 19.0439 31.9415 19.0451Z" fill="#FFCC00"/>
<path d="M5.05854 17.9551H5.05348C4.91061 17.9551 4.77351 18.0115 4.67202 18.112C4.57052 18.2126 4.51283 18.3491 4.51149 18.492V18.5007C4.51092 18.5719 4.52437 18.6425 4.55108 18.7084C4.5778 18.7744 4.61724 18.8345 4.66717 18.8852C4.71709 18.9359 4.77652 18.9763 4.84206 19.0041C4.9076 19.0319 4.97797 19.0464 5.04915 19.047H5.05348C5.19641 19.0472 5.33362 18.9909 5.43516 18.8903C5.5367 18.7897 5.59433 18.653 5.59548 18.5101V18.5007C5.59605 18.4296 5.58261 18.3591 5.55594 18.2932C5.52926 18.2273 5.48987 18.1673 5.44001 18.1167C5.39015 18.066 5.3308 18.0257 5.26535 17.9979C5.1999 17.9702 5.12962 17.9556 5.05854 17.9551Z" fill="#FFCC00"/>
</g>
<defs>
<clipPath id="clip0_1_2265">
<rect width="37" height="37" fill="white"/>
</clipPath>
</defs>
</svg>
