<svg width="27" height="37" viewBox="0 0 27 37" fill="none" xmlns="http://www.w3.org/2000/svg">
<g clip-path="url(#clip0_1_2282)">
<path d="M16.6654 3.08333L15.1238 0H11.0846L9.54292 3.08333H6.9375V4.625H0V37H26.2083V4.625H19.2708V3.08333H16.6654ZM10.4988 4.625L12.0404 1.54167H14.1679L15.7096 4.625H17.7292V9.25H8.47917V4.625H10.4988ZM19.2708 10.7917V9.25H21.5833V32.375H4.625V9.25H6.9375V10.7917H19.2708ZM24.6667 6.16667V35.4583H1.54167V6.16667H6.9375V7.70833H3.08333V33.9167H23.125V7.70833H19.2708V6.16667H24.6667Z" fill="#FFCC00"/>
<path d="M13.8749 3.85352H12.3333V5.39518H13.8749V3.85352Z" fill="#FFCC00"/>
<path d="M19.8182 16.7352L18.7236 15.6406L10.7918 23.5802L8.25572 21.0365L7.16113 22.131L10.7918 25.754L19.8182 16.7352Z" fill="#FFCC00"/>
</g>
<defs>
<clipPath id="clip0_1_2282">
<rect width="26.2083" height="37" fill="white"/>
</clipPath>
</defs>
</svg>
