<svg width="37" height="38" viewBox="0 0 37 38" fill="none" xmlns="http://www.w3.org/2000/svg">
<g clip-path="url(#clip0_1_2287)">
<path d="M35.0231 13.0043C34.3877 12.8827 33.7299 13.0079 33.1836 13.3544C32.6373 13.7009 32.2436 14.2426 32.0828 14.8692L30.6157 20.3396C30.231 20.0857 29.7834 19.9436 29.3227 19.9293C28.8589 19.9177 28.4008 20.0339 27.9986 20.265L23.7528 22.7516C22.9178 23.2577 22.2299 23.9735 21.7573 24.8279C21.2733 25.6743 21.0164 26.6315 21.0113 27.6066V32.3248H20.3897C20.2248 32.3248 20.0667 32.3903 19.9501 32.5069C19.8336 32.6235 19.7681 32.7816 19.7681 32.9465V36.6763C19.7681 36.8412 19.8336 36.9993 19.9501 37.1159C20.0667 37.2325 20.2248 37.298 20.3897 37.298H30.3359C30.4178 37.2984 30.4989 37.2828 30.5746 37.2518C30.6503 37.2209 30.7192 37.1753 30.7773 37.1177C30.8349 37.0596 30.8805 36.9907 30.9114 36.915C30.9424 36.8392 30.9581 36.7581 30.9576 36.6763V32.9465C30.9581 32.8647 30.9424 32.7836 30.9114 32.7078C30.8805 32.6321 30.8349 32.5632 30.7773 32.5051C30.7192 32.4475 30.6503 32.4019 30.5746 32.371C30.4989 32.34 30.4178 32.3244 30.3359 32.3248H29.7143V31.6037C29.7006 31.3368 29.743 31.07 29.8386 30.8205C29.9523 30.5817 30.1155 30.3698 30.3173 30.1988L33.2141 27.7123C33.6908 27.3051 34.0331 26.7634 34.1963 26.1582L36.8942 16.0938C36.9469 15.8908 36.9741 15.682 36.9751 15.4722C36.9743 14.9018 36.7775 14.3489 36.4176 13.9064C36.0577 13.4639 35.5566 13.1585 34.9982 13.0416L35.0231 13.0043ZM29.6894 36.0547H20.9865V33.5681H29.6894V36.0547ZM35.7131 15.7581L33.0152 25.8287C32.9209 26.1922 32.7168 26.5178 32.4309 26.7612L29.534 29.2477C29.192 29.539 28.9183 29.9019 28.7321 30.3107C28.5441 30.7181 28.4466 31.1613 28.4462 31.61V32.3248H22.2298V27.6066C22.2349 26.8472 22.4362 26.102 22.8141 25.4433C23.189 24.7856 23.7289 24.2371 24.3806 23.8519L28.6264 21.3653C28.8153 21.2558 29.0297 21.1979 29.2481 21.1975C29.4799 21.1977 29.7074 21.26 29.907 21.3778C30.102 21.5003 30.2591 21.6747 30.3608 21.8813C30.4946 22.1826 30.5101 22.5232 30.4041 22.8354C30.2981 23.1476 30.0785 23.4084 29.7889 23.5659L26.3077 25.5676C26.1691 25.6548 26.0704 25.7931 26.0332 25.9525C25.9959 26.112 26.0231 26.2797 26.1088 26.4193C26.1496 26.4906 26.2041 26.5532 26.2691 26.6033C26.3342 26.6535 26.4086 26.6902 26.488 26.7114C26.567 26.7327 26.6493 26.7381 26.7304 26.7274C26.8115 26.7168 26.8896 26.6902 26.9604 26.6493L30.4416 24.6414C30.964 24.3507 31.3685 23.8868 31.5854 23.3297C31.7908 22.7677 31.7908 22.1512 31.5854 21.5891L33.2949 15.2173C33.3737 14.8957 33.5685 14.6145 33.842 14.4278C34.1182 14.2443 34.4531 14.1711 34.7807 14.2227C35.0593 14.281 35.3095 14.4333 35.4894 14.6539C35.6693 14.8745 35.768 15.1502 35.7691 15.4349C35.7734 15.5443 35.7587 15.6537 35.7256 15.7581H35.7131Z" fill="#FFCC00"/>
<path d="M12.2837 7.45946V9.94602C12.2837 10.1109 12.3492 10.269 12.4658 10.3856C12.5823 10.5022 12.7405 10.5677 12.9053 10.5677H13.9994L13.2286 11.3385C13.1703 11.3963 13.1241 11.465 13.0925 11.5408C13.061 11.6165 13.0447 11.6978 13.0447 11.7799C13.0447 11.8619 13.061 11.9432 13.0925 12.0189C13.1241 12.0947 13.1703 12.1634 13.2286 12.2212L14.9878 13.9805C15.1036 14.0953 15.2599 14.16 15.423 14.1607C15.5048 14.1612 15.5859 14.1455 15.6616 14.1146C15.7374 14.0837 15.8063 14.0381 15.8643 13.9805L16.6352 13.2034V14.2975C16.6352 14.4624 16.7007 14.6205 16.8172 14.7371C16.9338 14.8536 17.0919 14.9191 17.2568 14.9191H19.7434C19.8252 14.9196 19.9063 14.9039 19.982 14.873C20.0578 14.8421 20.1266 14.7965 20.1847 14.7389C20.2423 14.6808 20.2879 14.6119 20.3189 14.5361C20.3498 14.4604 20.3655 14.3793 20.365 14.2975V13.2034L21.1358 13.9805C21.2516 14.0953 21.4079 14.16 21.571 14.1607C21.6528 14.1612 21.7339 14.1455 21.8096 14.1146C21.8854 14.0837 21.9543 14.0381 22.0124 13.9805L23.7716 12.2212C23.8299 12.1634 23.8761 12.0947 23.9077 12.0189C23.9392 11.9432 23.9555 11.8619 23.9555 11.7799C23.9555 11.6978 23.9392 11.6165 23.9077 11.5408C23.8761 11.465 23.8299 11.3963 23.7716 11.3385L23.0008 10.5677H24.0886C24.1704 10.5681 24.2515 10.5524 24.3273 10.5215C24.403 10.4906 24.4719 10.445 24.53 10.3874C24.5876 10.3293 24.6332 10.2604 24.6641 10.1847C24.6951 10.1089 24.7107 10.0278 24.7103 9.94602V7.45946C24.7107 7.37764 24.6951 7.29654 24.6641 7.2208C24.6332 7.14507 24.5876 7.07618 24.53 7.01809C24.4719 6.96048 24.403 6.9149 24.3273 6.88396C24.2515 6.85302 24.1704 6.83734 24.0886 6.83782H23.0008L23.7716 6.06698C23.8299 6.00919 23.8761 5.94044 23.9077 5.86469C23.9392 5.78893 23.9555 5.70768 23.9555 5.62562C23.9555 5.54356 23.9392 5.4623 23.9077 5.38655C23.8761 5.3108 23.8299 5.24204 23.7716 5.18426L22.0186 3.42501C21.9605 3.3674 21.8916 3.32182 21.8159 3.29088C21.7401 3.25995 21.659 3.24427 21.5772 3.24474C21.4141 3.24543 21.2578 3.31017 21.1421 3.42501L20.365 4.20206V3.10798C20.3655 3.02617 20.3498 2.94507 20.3189 2.86933C20.2879 2.79359 20.2423 2.7247 20.1847 2.66661C20.1266 2.609 20.0578 2.56342 19.982 2.53248C19.9063 2.50155 19.8252 2.48587 19.7434 2.48634H17.2568C17.0919 2.48634 16.9338 2.55183 16.8172 2.66841C16.7007 2.78499 16.6352 2.94311 16.6352 3.10798V4.20206L15.8643 3.42501C15.8063 3.3674 15.7374 3.32182 15.6616 3.29088C15.5859 3.25995 15.5048 3.24427 15.423 3.24474C15.2599 3.24543 15.1036 3.31017 14.9878 3.42501L13.2286 5.18426C13.1703 5.24204 13.1241 5.3108 13.0925 5.38655C13.061 5.4623 13.0447 5.54356 13.0447 5.62562C13.0447 5.70768 13.061 5.78893 13.0925 5.86469C13.1241 5.94044 13.1703 6.00919 13.2286 6.06698L13.9994 6.83782H12.9053C12.7405 6.83782 12.5823 6.90331 12.4658 7.01989C12.3492 7.13647 12.2837 7.29459 12.2837 7.45946ZM13.527 8.0811H14.9878C15.1223 8.0811 15.2532 8.03747 15.3608 7.95677C15.4673 7.87768 15.5457 7.76658 15.5846 7.63973C15.6095 7.55284 15.645 7.46933 15.6903 7.39108C15.7518 7.27261 15.7736 7.13747 15.7524 7.00566C15.7319 6.87619 15.671 6.75652 15.5784 6.66376L14.5465 5.62562L15.423 4.74289L16.4611 5.78103C16.5539 5.87365 16.6735 5.93457 16.803 5.95509C16.9348 5.97629 17.07 5.9545 17.1884 5.89292C17.2667 5.84767 17.3502 5.81218 17.4371 5.78725C17.5692 5.74734 17.6843 5.66458 17.7643 5.55203C17.8442 5.43947 17.8843 5.30352 17.8784 5.16561V3.72962H19.1217V5.19047C19.1162 5.32919 19.1573 5.46576 19.2384 5.57842C19.3195 5.69108 19.436 5.77335 19.5693 5.81211C19.6554 5.83934 19.7386 5.87473 19.818 5.91779C19.9354 5.97572 20.0674 5.99737 20.1972 5.97995C20.3288 5.96069 20.4509 5.89968 20.5453 5.80589L21.5772 4.76776L22.4599 5.65048L21.4218 6.68241C21.328 6.77682 21.267 6.89885 21.2477 7.03053C21.2303 7.16029 21.252 7.29231 21.3099 7.40973C21.353 7.48906 21.3884 7.57232 21.4156 7.65838C21.4532 7.78751 21.5318 7.90093 21.6394 7.98163C21.747 8.06234 21.8778 8.10596 22.0124 8.10596H23.4732V9.34924H22.0124C21.88 9.35057 21.7515 9.39413 21.6456 9.47357C21.5391 9.55266 21.4607 9.66375 21.4218 9.79061C21.3942 9.87652 21.3588 9.95974 21.3161 10.0393C21.2524 10.157 21.2284 10.2922 21.2477 10.4247C21.2719 10.5542 21.3348 10.6734 21.428 10.7666L22.4599 11.8109L21.5772 12.6937L20.5453 11.6244C20.4518 11.5308 20.3308 11.4694 20.2 11.4493C20.0691 11.4292 19.9353 11.4513 19.818 11.5125C19.7392 11.5567 19.6558 11.5921 19.5693 11.6182C19.4402 11.6559 19.3268 11.7344 19.2461 11.842C19.1654 11.9496 19.1217 12.0805 19.1217 12.215V13.6759H17.8784V12.215C17.8774 12.0816 17.8362 11.9517 17.7603 11.842C17.6796 11.7344 17.5662 11.6559 17.4371 11.6182C17.3506 11.5921 17.2672 11.5567 17.1884 11.5125C17.0709 11.455 16.939 11.4333 16.8092 11.4504C16.6776 11.4696 16.5555 11.5307 16.4611 11.6244L15.423 12.6626L14.5465 11.8109L15.5784 10.779C15.6722 10.6846 15.7332 10.5626 15.7524 10.4309C15.7761 10.3011 15.7541 10.1671 15.6903 10.0517C15.6498 9.97113 15.6145 9.88808 15.5846 9.80304C15.5469 9.67391 15.4684 9.56049 15.3608 9.47979C15.2532 9.39908 15.1223 9.35546 14.9878 9.35546H13.527V8.0811Z" fill="#FFCC00"/>
<path d="M18.5 11.1904C18.992 11.1908 19.4732 11.0451 19.8824 10.7719C20.2917 10.4987 20.6107 10.1102 20.7991 9.65564C20.9875 9.20104 21.0367 8.70078 20.9406 8.21817C20.8445 7.73557 20.6073 7.29233 20.2592 6.94457C19.9116 6.59641 19.4685 6.35919 18.9861 6.26292C18.5036 6.16665 18.0034 6.21566 17.5489 6.40375C17.0156 6.62277 16.5751 7.02026 16.3025 7.52821C16.03 8.03617 15.9424 8.62303 16.0548 9.18843C16.1671 9.75383 16.4724 10.2626 16.9184 10.6278C17.3645 10.993 17.9235 11.1918 18.5 11.1904ZM18.5 7.46053C18.7458 7.46121 18.9859 7.53477 19.19 7.67189C19.394 7.8084 19.5531 8.00227 19.6471 8.22906C19.7412 8.45585 19.766 8.7054 19.7184 8.94625C19.6718 9.18259 19.5548 9.3993 19.3827 9.56789C19.2131 9.73982 18.9971 9.85862 18.761 9.90979C18.5978 9.92571 18.433 9.90932 18.276 9.86154C18.1191 9.81377 17.9731 9.73556 17.8464 9.63136C17.5905 9.42094 17.4287 9.11747 17.3966 8.78774C17.3644 8.458 17.4646 8.12899 17.675 7.8731C17.8854 7.61721 18.1889 7.45539 18.5186 7.42324L18.5 7.46053Z" fill="#FFCC00"/>
<path d="M16.6351 32.3259H16.0134V27.6076C16.0132 26.6328 15.7582 25.6749 15.2737 24.8289C14.7883 23.9841 14.0922 23.2794 13.2534 22.7837L8.99513 20.2972C8.59493 20.0671 8.13861 19.9531 7.67725 19.9677C7.21655 19.982 6.76889 20.124 6.38424 20.378L4.91717 14.92C4.75629 14.2934 4.36262 13.7517 3.81632 13.4052C3.27003 13.0587 2.6122 12.9335 1.97682 13.0551C1.64631 13.1238 1.33328 13.2592 1.05679 13.4529C0.785653 13.6352 0.551515 13.8672 0.366771 14.1367C0.182337 14.4239 0.0576029 14.7452 3.15532e-06 15.0816C-0.0494828 15.4156 -0.0304468 15.7561 0.0559507 16.0824L2.77873 26.1468C2.94193 26.752 3.28431 27.2938 3.76092 27.7009L6.65776 30.1875C6.86284 30.3568 7.02834 30.569 7.14264 30.8091C7.25379 31.053 7.31104 31.3181 7.31049 31.5861V32.3259H6.68885C6.52398 32.3259 6.36586 32.3914 6.24928 32.508C6.1327 32.6245 6.06721 32.7827 6.06721 32.9475V36.6774C6.06721 36.8422 6.1327 37.0004 6.24928 37.1169C6.36586 37.2335 6.52398 37.299 6.68885 37.299H16.6351C16.7169 37.2995 16.798 37.2838 16.8737 37.2529C16.9495 37.2219 17.0184 37.1763 17.0764 37.1187C17.1341 37.0606 17.1796 36.9918 17.2106 36.916C17.2415 36.8403 17.2572 36.7592 17.2567 36.6774V32.9475C17.2572 32.8657 17.2415 32.7846 17.2106 32.7089C17.1796 32.6331 17.1341 32.5643 17.0764 32.5062C17.0184 32.4486 16.9495 32.403 16.8737 32.372C16.798 32.3411 16.7169 32.3254 16.6351 32.3259ZM7.45968 29.2177L4.56906 26.7311C4.28185 26.4888 4.07755 26.1628 3.98471 25.7987L1.2868 15.7592C1.25667 15.6541 1.24201 15.5452 1.24328 15.4359C1.24998 15.1516 1.34807 14.8769 1.52302 14.6527C1.70327 14.4329 1.95338 14.2815 2.23169 14.2237C2.55917 14.174 2.89349 14.2471 3.17037 14.4289C3.45022 14.6116 3.6502 14.8938 3.72984 15.2184L5.42692 21.5902C5.23136 22.1544 5.24068 22.7696 5.45323 23.3276C5.66578 23.8857 6.06801 24.3512 6.58938 24.6424L10.0706 26.6441C10.1412 26.686 10.2193 26.7134 10.3006 26.7249C10.3877 26.7496 10.4797 26.7517 10.5679 26.7311C10.6474 26.7126 10.7217 26.6765 10.7855 26.6255C10.8488 26.5746 10.9034 26.5137 10.9471 26.4452C10.9868 26.3741 11.0121 26.296 11.0217 26.2152C11.0376 26.1351 11.0376 26.0528 11.0217 25.9727C10.9983 25.8939 10.9603 25.8201 10.9098 25.7552C10.8624 25.6886 10.8008 25.6334 10.7295 25.5935L7.21102 23.5608C6.91844 23.4067 6.69598 23.1465 6.58938 22.8335C6.48396 22.5196 6.50173 22.1774 6.63912 21.8761C6.74011 21.6706 6.8975 21.4981 7.09291 21.3788C7.29025 21.261 7.51578 21.1987 7.74563 21.1985C7.96318 21.199 8.17705 21.2546 8.36727 21.3602L12.6193 23.8467C13.2694 24.2292 13.8089 24.7742 14.1848 25.428C14.5608 26.0819 14.7604 26.8223 14.7639 27.5766V32.3259H8.54755V31.6048C8.54906 31.1566 8.45364 30.7134 8.26781 30.3056C8.07849 29.8898 7.80304 29.519 7.45968 29.2177ZM16.0134 36.0557H7.31049V33.5692H16.0134V36.0557Z" fill="#FFCC00"/>
<path d="M28.4462 34.1895H27.8245C27.6597 34.1895 27.5015 34.255 27.385 34.3715C27.2684 34.4881 27.2029 34.6462 27.2029 34.8111C27.2029 34.976 27.2684 35.1341 27.385 35.2507C27.5015 35.3672 27.6597 35.4327 27.8245 35.4327H28.4462C28.528 35.4332 28.6091 35.4175 28.6848 35.3866C28.7606 35.3557 28.8294 35.3101 28.8875 35.2525C28.9458 35.1947 28.992 35.1259 29.0236 35.0502C29.0552 34.9744 29.0714 34.8932 29.0714 34.8111C29.0714 34.729 29.0552 34.6478 29.0236 34.572C28.992 34.4963 28.9458 34.4275 28.8875 34.3697C28.8294 34.3121 28.7606 34.2665 28.6848 34.2356C28.6091 34.2047 28.528 34.189 28.4462 34.1895Z" fill="#FFCC00"/>
<path d="M9.17541 34.1895H8.55377C8.3889 34.1895 8.23078 34.255 8.1142 34.3715C7.99762 34.4881 7.93213 34.6462 7.93213 34.8111C7.93213 34.976 7.99762 35.1341 8.1142 35.2507C8.23078 35.3672 8.3889 35.4327 8.55377 35.4327H9.17541C9.25722 35.4332 9.33832 35.4175 9.41406 35.3866C9.4898 35.3557 9.55869 35.3101 9.61677 35.2525C9.67504 35.1947 9.72128 35.1259 9.75284 35.0502C9.7844 34.9744 9.80065 34.8932 9.80065 34.8111C9.80065 34.729 9.7844 34.6478 9.75284 34.572C9.72128 34.4963 9.67504 34.4275 9.61677 34.3697C9.55869 34.3121 9.4898 34.2665 9.41406 34.2356C9.33832 34.2047 9.25722 34.189 9.17541 34.1895Z" fill="#FFCC00"/>
<path d="M27.8246 9.3246C27.8246 6.85156 26.8422 4.47981 25.0935 2.73111C23.3448 0.98241 20.973 0 18.5 0C16.027 0 13.6552 0.98241 11.9065 2.73111C10.1578 4.47981 9.1754 6.85156 9.1754 9.3246C8.18618 9.3246 7.23748 9.71756 6.538 10.417C5.83852 11.1165 5.44556 12.0652 5.44556 13.0544C5.44556 14.0436 5.83852 14.9923 6.538 15.6918C7.23748 16.3913 8.18618 16.7843 9.1754 16.7843H11.0403C11.1221 16.7847 11.2032 16.7691 11.279 16.7381C11.3547 16.7072 11.4236 16.6616 11.4817 16.604C11.5393 16.5459 11.5849 16.477 11.6158 16.4013C11.6467 16.3255 11.6624 16.2444 11.662 16.1626V9.94624C11.6624 9.86442 11.6467 9.78332 11.6158 9.70758C11.5849 9.63185 11.5393 9.56296 11.4817 9.50487C11.4236 9.44726 11.3547 9.40168 11.279 9.37074C11.2032 9.3398 11.1221 9.32412 11.0403 9.3246H10.4187C10.4187 7.1813 11.2701 5.12578 12.7856 3.61024C14.3012 2.0947 16.3567 1.24328 18.5 1.24328C20.6433 1.24328 22.6988 2.0947 24.2143 3.61024C25.7299 5.12578 26.5813 7.1813 26.5813 9.3246H25.9597C25.7948 9.3246 25.6367 9.39009 25.5201 9.50667C25.4035 9.62325 25.338 9.78137 25.338 9.94624V16.1626C25.338 16.3275 25.4035 16.4856 25.5201 16.6022C25.6367 16.7188 25.7948 16.7843 25.9597 16.7843H26.5813V18.0276C26.5818 18.1094 26.5661 18.1905 26.5352 18.2662C26.5042 18.3419 26.4586 18.4108 26.401 18.4689C26.3429 18.5265 26.2741 18.5721 26.1983 18.603C26.1226 18.634 26.0415 18.6497 25.9597 18.6492H20.8747C20.7472 18.286 20.5105 17.9712 20.1971 17.7478C19.8814 17.5277 19.5064 17.4085 19.1216 17.4059H17.8784C17.3837 17.4059 16.9094 17.6024 16.5597 17.9521C16.2099 18.3019 16.0134 18.7762 16.0134 19.2708C16.0134 19.7654 16.2099 20.2398 16.5597 20.5895C16.9094 20.9393 17.3837 21.1357 17.8784 21.1357H19.1216C19.5064 21.1332 19.8814 21.014 20.1971 20.7938C20.5105 20.5705 20.7472 20.2557 20.8747 19.8925H25.9597C26.4543 19.8925 26.9286 19.696 27.2784 19.3462C27.6281 18.9965 27.8246 18.5222 27.8246 18.0276V16.7843C28.8138 16.7843 29.7625 16.3913 30.462 15.6918C31.1615 14.9923 31.5544 14.0436 31.5544 13.0544C31.5544 12.0652 31.1615 11.1165 30.462 10.417C29.7625 9.71756 28.8138 9.3246 27.8246 9.3246ZM8.55376 15.454C8.027 15.3108 7.56198 14.9983 7.23045 14.5646C6.89892 14.131 6.7193 13.6003 6.7193 13.0544C6.7193 12.5086 6.89892 11.9779 7.23045 11.5442C7.56198 11.1106 8.027 10.7981 8.55376 10.6549V15.454ZM10.4187 15.541H9.79704V10.5679H10.4187V15.541ZM19.1216 19.8925H17.8784C17.7135 19.8925 17.5554 19.827 17.4388 19.7104C17.3222 19.5938 17.2567 19.4357 17.2567 19.2708C17.2567 19.106 17.3222 18.9478 17.4388 18.8313C17.5554 18.7147 17.7135 18.6492 17.8784 18.6492H19.1216C19.2034 18.6487 19.2845 18.6644 19.3603 18.6953C19.436 18.7263 19.5049 18.7719 19.563 18.8295C19.6213 18.8873 19.6675 18.956 19.6991 19.0318C19.7306 19.1075 19.7469 19.1888 19.7469 19.2708C19.7469 19.3529 19.7306 19.4341 19.6991 19.5099C19.6675 19.5857 19.6213 19.6544 19.563 19.7122C19.5049 19.7698 19.436 19.8154 19.3603 19.8463C19.2845 19.8773 19.2034 19.8929 19.1216 19.8925ZM27.2029 15.541H26.5813V10.5679H27.2029V15.541ZM28.4462 15.454V10.6549C28.9814 10.7912 29.456 11.1017 29.7952 11.5376C30.1299 11.9724 30.3114 12.5057 30.3114 13.0544C30.3114 13.6031 30.1299 14.1364 29.7952 14.5712C29.456 15.0071 28.9814 15.3177 28.4462 15.454Z" fill="#FFCC00"/>
</g>
<defs>
<clipPath id="clip0_1_2287">
<rect width="37" height="37.2984" fill="white"/>
</clipPath>
</defs>
</svg>
