<svg width="35" height="35" viewBox="0 0 35 35" fill="none" xmlns="http://www.w3.org/2000/svg">
<path d="M28.9844 29.5313H17.7188L13.6172 26.25H19.1406C20.0703 26.25 20.7812 25.5391 20.7812 24.6094V23.5157C20.7812 23.2969 20.6719 23.1328 20.5078 23.0235L12.3047 18.6485C12.1406 18.5938 11.9766 18.5391 11.8125 18.6485L7.65625 20.5079V20.2344C7.65625 19.9063 7.4375 19.6875 7.10938 19.6875H4.92188C4.59375 19.6875 4.375 19.9063 4.375 20.2344V20.7813H1.64062C1.3125 20.7813 1.09375 21 1.09375 21.3282V28.9844C1.09375 29.3125 1.3125 29.5313 1.64062 29.5313H4.375V30.0782C4.375 30.4063 4.59375 30.625 4.92188 30.625H7.10938C7.38281 30.625 7.65625 30.4063 7.65625 30.1329L12.25 33.7969C12.3594 33.8516 12.4688 33.9063 12.5781 33.9063H30.0781C30.4062 33.9063 30.625 33.6875 30.625 33.3594V31.1719C30.625 30.2422 29.9141 29.5313 28.9844 29.5313ZM2.1875 28.4375V21.875H4.375V28.4375H2.1875ZM6.5625 29.5313H5.46875V20.7813H6.5625V29.5313ZM29.5312 32.8125H12.7969L7.65625 28.711V21.711L12.0312 19.7969L19.6875 23.8985V24.6094C19.6875 24.9375 19.4688 25.1563 19.1406 25.1563H12.0312C11.7031 25.1563 11.4844 25.375 11.4844 25.7032C11.4844 25.8672 11.5391 26.0313 11.7031 26.1407L17.1719 30.5157C17.2812 30.5704 17.3906 30.625 17.5 30.625H28.9844C29.3125 30.625 29.5312 30.8438 29.5312 31.1719V32.8125Z" fill="#FFCC00"/>
<path d="M22.4219 10.3906H21.3281V11.4844H22.4219V10.3906Z" fill="#FFCC00"/>
<path d="M24.6094 10.3906H23.5156V11.4844H24.6094V10.3906Z" fill="#FFCC00"/>
<path d="M26.7969 10.3906H25.7031V11.4844H26.7969V10.3906Z" fill="#FFCC00"/>
<path d="M32.539 8.58594L31.6093 8.42188C31.4452 8.36719 31.2812 8.25781 31.2265 8.09375C31.1718 8.03906 31.1718 7.92969 31.1171 7.875C31.0624 7.71094 31.0624 7.49219 31.1718 7.38281L31.7187 6.61719C32.2109 5.96094 32.1015 5.08594 31.5546 4.48438L30.5702 3.5C30.0234 2.95312 29.0937 2.84375 28.4374 3.33594L27.6718 3.88281C27.5077 3.99219 27.3437 3.99219 27.1796 3.9375C27.0156 3.88281 26.9609 3.82812 26.8515 3.82812C26.6874 3.77344 26.5781 3.60938 26.5234 3.44531L26.3593 2.51562C26.2499 1.69531 25.5937 1.09375 24.7734 1.09375H23.3515C22.5312 1.09375 21.8749 1.69531 21.7109 2.46094L21.5468 3.39062C21.4921 3.55469 21.3827 3.71875 21.2187 3.77344C21.164 3.82812 21.0546 3.82812 20.9999 3.88281C20.8359 3.9375 20.6171 3.9375 20.5077 3.82812L19.7421 3.28125C19.0859 2.78906 18.2109 2.89844 17.6093 3.44531L17.4999 3.60938L15.1484 1.25781C15.039 1.14844 14.9296 1.09375 14.7656 1.09375H3.28118C2.95305 1.09375 2.7343 1.3125 2.7343 1.64062V4.42969C1.58587 4.75781 0.87493 5.96094 1.14837 7.10938C1.4218 8.25781 2.62493 8.96875 3.82805 8.69531C5.03118 8.42188 5.68743 7.21875 5.41399 6.01562C5.19524 5.25 4.59368 4.64844 3.82805 4.42969V2.1875H14.5468L16.7343 4.375L16.6249 4.48438C16.0781 5.03125 15.9687 5.96094 16.4609 6.61719L17.0077 7.38281C17.1171 7.54688 17.1171 7.71094 17.0624 7.875C17.0077 7.92969 17.0077 8.03906 16.9531 8.09375C16.8984 8.25781 16.7343 8.36719 16.5702 8.42188L15.6406 8.58594C14.8749 8.69531 14.2734 9.40625 14.2734 10.2266V10.3906H6.01555C5.68743 10.3906 5.46868 10.6094 5.46868 10.9375V12.6328C4.32024 12.9609 3.6093 14.1094 3.88274 15.3125C4.15618 16.5156 5.3593 17.1719 6.56243 16.8984C7.71087 16.5703 8.4218 15.4219 8.14837 14.2188C7.92962 13.4531 7.32805 12.8516 6.56243 12.6328V11.4844H14.2187V11.6484C14.2187 12.4688 14.8202 13.125 15.5859 13.2891L16.5156 13.4531C16.6796 13.5078 16.8437 13.6172 16.8984 13.7812C16.9531 13.8359 16.9531 13.9453 17.0077 14C17.0624 14.1641 17.0624 14.3828 16.9531 14.4922L16.4062 15.2578C15.914 15.9141 16.0234 16.7891 16.5702 17.3906L17.6093 18.375C18.1562 18.9219 19.0859 19.0312 19.7421 18.5391L20.5077 17.9922C20.6718 17.8828 20.8359 17.8828 20.9999 17.9375C21.0546 17.9922 21.164 17.9922 21.2187 18.0469C21.3827 18.1016 21.4921 18.2656 21.5468 18.4297L21.7109 19.3594C21.8202 20.125 22.5312 20.7266 23.3515 20.7266H23.5156V26.7422C23.5156 27.0703 23.7343 27.2891 24.0624 27.2891H29.039C29.3671 28.4375 30.5156 29.1484 31.7187 28.875C32.8671 28.5469 33.5781 27.3984 33.3046 26.1953C33.0312 24.9922 31.8281 24.3359 30.6249 24.6094C29.8593 24.8281 29.2577 25.4297 29.039 26.1953H24.6093V20.7812H24.7734C25.5937 20.7812 26.2499 20.1797 26.414 19.4141L26.5781 18.4844C26.6327 18.3203 26.7421 18.1562 26.9062 18.1016C26.9609 18.0469 27.0702 18.0469 27.1249 17.9922C27.289 17.9375 27.5077 17.9375 27.6171 18.0469L28.3827 18.5938C29.039 19.0859 29.914 18.9766 30.5156 18.4297L31.4999 17.4453C32.0468 16.8984 32.1562 15.9688 31.664 15.3125L31.1171 14.5469C31.0077 14.3828 31.0077 14.2188 31.0624 14.0547C31.1171 14 31.1171 13.8906 31.1718 13.8359C31.2265 13.6719 31.3906 13.5625 31.5546 13.5078L32.4843 13.3438C33.2499 13.2344 33.8515 12.5234 33.8515 11.7031V10.2812C33.9062 9.40625 33.3046 8.75 32.539 8.58594ZM4.37493 6.5625C4.37493 7.16406 3.88274 7.65625 3.28118 7.65625C2.67962 7.65625 2.18743 7.16406 2.18743 6.5625C2.18743 5.96094 2.67962 5.46875 3.28118 5.46875C3.88274 5.46875 4.37493 5.96094 4.37493 6.5625ZM7.1093 14.7656C7.1093 15.3672 6.61712 15.8594 6.01555 15.8594C5.41399 15.8594 4.9218 15.3672 4.9218 14.7656C4.9218 14.1641 5.41399 13.6719 6.01555 13.6719C6.61712 13.6719 7.1093 14.1641 7.1093 14.7656ZM31.1718 25.7031C31.7734 25.7031 32.2656 26.1953 32.2656 26.7969C32.2656 27.3984 31.7734 27.8906 31.1718 27.8906C30.5702 27.8906 30.0781 27.3984 30.0781 26.7969C30.0781 26.1953 30.5702 25.7031 31.1718 25.7031ZM32.8124 11.6484C32.8124 11.9219 32.5937 12.1406 32.3749 12.1953L31.4452 12.3594C30.8984 12.4688 30.4062 12.8516 30.1874 13.3438C30.1874 13.3984 30.1327 13.4531 30.0781 13.5625C29.8593 14.1094 29.914 14.7109 30.2421 15.1484L30.789 15.9141C30.9531 16.1328 30.8984 16.4062 30.7343 16.625L29.7499 17.6094C29.5859 17.7734 29.2577 17.8281 29.039 17.6641L28.2734 17.1172C27.8359 16.7891 27.2343 16.7344 26.6874 16.9531C26.6327 17.0078 26.5781 17.0078 26.4687 17.0625C25.9218 17.2812 25.539 17.7734 25.4843 18.3203L25.3202 19.25C25.2656 19.5234 25.0468 19.6875 24.7734 19.6875H23.3515C23.0781 19.6875 22.8593 19.4688 22.8046 19.25L22.6406 18.3203C22.5312 17.7734 22.1484 17.2812 21.6562 17.0625C21.6015 17.0625 21.5468 17.0078 21.4374 16.9531C21.2187 16.8438 20.9999 16.8438 20.7812 16.8438C20.4531 16.8438 20.1249 16.9531 19.8515 17.1719L19.0859 17.7188C18.8671 17.8828 18.5937 17.8281 18.3749 17.6641L17.3906 16.6797C17.2265 16.5156 17.1718 16.1875 17.3359 15.9688L17.8827 15.2031C18.2109 14.7656 18.2656 14.1641 18.0468 13.6172C17.9921 13.5625 17.9921 13.5078 17.9374 13.3984C17.7187 12.8516 17.2265 12.4688 16.6796 12.4141L15.7499 12.25C15.4765 12.1953 15.3124 11.9766 15.3124 11.7031V10.2812C15.3124 10.0078 15.5312 9.78906 15.7499 9.73438L16.6796 9.57031C17.2265 9.46094 17.7187 9.07812 17.9374 8.58594C17.9374 8.53125 17.9921 8.47656 18.0468 8.36719C18.2656 7.82031 18.2109 7.21875 17.8827 6.78125L17.3359 6.01562C17.1718 5.79688 17.2265 5.52344 17.3906 5.30469L18.3749 4.32031C18.539 4.15625 18.8671 4.10156 19.0859 4.26562L19.8515 4.8125C20.289 5.14062 20.8906 5.19531 21.4374 4.97656C21.4921 4.92188 21.5468 4.92187 21.6562 4.86719C22.2031 4.64844 22.5859 4.15625 22.6406 3.60938L22.8046 2.67969C22.8593 2.40625 23.0781 2.24219 23.3515 2.24219H24.7734C25.0468 2.24219 25.2656 2.46094 25.3202 2.67969L25.4843 3.60938C25.5937 4.15625 25.9765 4.64844 26.4687 4.86719C26.5234 4.86719 26.5781 4.92188 26.6874 4.97656C27.2343 5.19531 27.8359 5.14062 28.2734 4.8125L29.039 4.26562C29.2577 4.10156 29.5312 4.15625 29.7499 4.32031L30.7343 5.30469C30.8984 5.46875 30.9531 5.79688 30.789 6.01562L30.2421 6.78125C29.914 7.21875 29.8593 7.82031 30.0781 8.36719C30.1327 8.42188 30.1327 8.47656 30.1874 8.58594C30.4062 9.13281 30.8984 9.51562 31.4452 9.57031L32.3749 9.73438C32.6484 9.78906 32.8124 10.0078 32.8124 10.2812V11.6484Z" fill="#FFCC00"/>
<path d="M24.0625 6.01562C21.3281 6.01562 19.1406 8.20312 19.1406 10.9375C19.1406 13.6719 21.3281 15.8594 24.0625 15.8594C26.7969 15.8594 28.9844 13.6719 28.9844 10.9375C28.9844 8.20312 26.7969 6.01562 24.0625 6.01562ZM24.0625 14.7656C21.9297 14.7656 20.2344 13.0703 20.2344 10.9375C20.2344 8.80469 21.9297 7.10938 24.0625 7.10938C26.1953 7.10938 27.8906 8.80469 27.8906 10.9375C27.8906 13.0703 26.1953 14.7656 24.0625 14.7656Z" fill="#FFCC00"/>
</svg>
