<svg width="35" height="35" viewBox="0 0 35 35" fill="none" xmlns="http://www.w3.org/2000/svg">
<g clip-path="url(#clip0_1_2826)">
<path fill-rule="evenodd" clip-rule="evenodd" d="M25.2246 23.7207C22.4219 23.7207 20.0977 21.4648 20.0977 18.6621C20.0977 15.8594 22.4219 13.5352 25.2246 13.5352C28.0273 13.5352 30.2832 15.8594 30.2832 18.6621C30.2832 21.4648 28.0273 23.7207 25.2246 23.7207ZM25.2246 14.4922C22.9004 14.4922 21.0547 16.3379 21.0547 18.6621C21.0547 20.918 22.9004 22.7637 25.2246 22.7637C27.4805 22.7637 29.3262 20.918 29.3262 18.6621C29.3262 16.3379 27.4805 14.4922 25.2246 14.4922Z" fill="#FFCC00"/>
<path fill-rule="evenodd" clip-rule="evenodd" d="M26.5234 28.8477H23.8574C23.3789 28.8477 22.9687 28.4375 22.9003 27.8906L22.7636 25.7031C21.875 25.3613 21.0546 24.8828 20.3027 24.2676L18.3203 25.2246C18.1836 25.293 18.0468 25.3613 17.9101 25.3613C17.5683 25.3613 17.2265 25.1562 17.0898 24.8828L15.7226 22.5586C15.4492 22.1484 15.5859 21.6016 16.0644 21.3281L17.9101 20.0977C17.7734 19.6191 17.7734 19.1406 17.7734 18.6621C17.7734 18.1836 17.7734 17.7051 17.9101 17.2266L16.0644 15.9961C15.5859 15.7227 15.4492 15.1758 15.7226 14.6973L17.0898 12.373C17.2265 12.0996 17.5683 11.8945 17.9101 11.8945C18.0468 11.8945 18.1836 11.9629 18.3203 12.0312L20.3027 13.0566C21.0546 12.373 21.875 11.8945 22.7636 11.6211L22.9003 9.36523C22.9687 8.88672 23.3789 8.47656 23.8574 8.47656H26.5234C27.0703 8.47656 27.4804 8.88672 27.4804 9.36523L27.6171 11.6211C28.5058 11.8945 29.3945 12.373 30.0781 13.0566L32.0605 12.0312C32.1972 11.9629 32.4023 11.8945 32.539 11.8945C32.8808 11.8945 33.1543 12.0996 33.3593 12.373L34.7265 14.6973C34.9316 15.1758 34.7949 15.7227 34.3847 15.9961L32.539 17.2266C32.6074 17.7051 32.6757 18.1836 32.6757 18.6621C32.6757 19.1406 32.6074 19.6191 32.539 20.0977L34.3847 21.3281C34.7949 21.6016 34.9316 22.1484 34.7265 22.5586L33.3593 24.8828C33.1543 25.1562 32.8808 25.3613 32.539 25.3613C32.4023 25.3613 32.1972 25.293 32.0605 25.2246L30.0781 24.2676C29.3945 24.8828 28.5058 25.3613 27.6171 25.7031L27.4804 27.8906C27.4804 28.4375 27.0703 28.8477 26.5234 28.8477ZM23.8574 27.8906H26.5234C26.5234 27.8906 26.5234 27.8906 26.5234 27.8223L26.6601 25.293C26.7285 25.0879 26.8652 24.9512 27.0019 24.8828C28.0273 24.6094 28.916 24.0625 29.6679 23.3105C29.8046 23.1738 30.0781 23.1738 30.2148 23.2422L32.539 24.4043L33.8378 22.0801L31.7187 20.7129C31.582 20.5762 31.4453 20.3711 31.5136 20.166C31.6503 19.6875 31.7187 19.1406 31.7187 18.6621C31.7187 18.1152 31.6503 17.6367 31.5136 17.0898C31.4453 16.8848 31.582 16.6797 31.7187 16.6113L33.8378 15.1758L32.539 12.8516C32.539 12.8516 32.539 12.8516 32.539 12.9199L30.2148 14.0137C30.0781 14.1504 29.8046 14.082 29.6679 13.9453C28.916 13.2617 28.0273 12.7148 27.0019 12.4414C26.8652 12.373 26.7285 12.168 26.6601 11.9629L26.5234 9.43359H23.8574L23.7207 11.9629C23.7207 12.168 23.5839 12.373 23.3789 12.4414C22.4218 12.7148 21.4648 13.2617 20.7128 13.9453C20.5761 14.082 20.3711 14.1504 20.166 14.0137L17.9101 12.9199C17.9101 12.8516 17.9101 12.8516 17.9101 12.8516L16.5429 15.1758L18.6621 16.6113C18.8671 16.6797 18.9355 16.8848 18.8671 17.0898C18.7988 17.6367 18.7304 18.1152 18.7304 18.6621C18.7304 19.1406 18.7988 19.6875 18.8671 20.166C18.9355 20.3711 18.8671 20.5762 18.6621 20.7129L16.5429 22.0801L17.9101 24.4043L20.166 23.2422C20.3711 23.1738 20.5761 23.1738 20.7128 23.3105C21.4648 24.0625 22.4218 24.6094 23.3789 24.8828C23.5839 24.9512 23.7207 25.0879 23.7207 25.293L23.8574 27.8223C23.8574 27.8906 23.8574 27.8906 23.8574 27.8906Z" fill="#FFCC00"/>
<path fill-rule="evenodd" clip-rule="evenodd" d="M9.16016 33.0176H6.35742C6.08398 33.0176 5.87891 32.8125 5.87891 32.5391V23.6523C5.87891 23.3789 6.08398 23.1738 6.35742 23.1738H9.16016C9.36523 23.1738 9.63867 23.3789 9.63867 23.6523V32.5391C9.63867 32.8125 9.36523 33.0176 9.16016 33.0176ZM6.83594 32.0605H8.68164V24.1309H6.83594V32.0605Z" fill="#FFCC00"/>
<path fill-rule="evenodd" clip-rule="evenodd" d="M11.8945 33.0176H9.16016C8.88672 33.0176 8.68164 32.8125 8.68164 32.5391V16.8164C8.68164 16.543 8.88672 16.3379 9.16016 16.3379H11.8945C12.168 16.3379 12.373 16.543 12.373 16.8164V32.5391C12.373 32.8125 12.168 33.0176 11.8945 33.0176ZM9.63867 32.0605H11.416V17.2949H9.63867V32.0605Z" fill="#FFCC00"/>
<path fill-rule="evenodd" clip-rule="evenodd" d="M14.6289 33.0176H11.8945C11.6211 33.0176 11.416 32.8125 11.416 32.5391V19.8926C11.416 19.6191 11.6211 19.4141 11.8945 19.4141H14.6289C14.9023 19.4141 15.1074 19.6191 15.1074 19.8926V32.5391C15.1074 32.8125 14.9023 33.0176 14.6289 33.0176ZM12.373 32.0605H14.1504V20.3711H12.373V32.0605Z" fill="#FFCC00"/>
<path fill-rule="evenodd" clip-rule="evenodd" d="M16.8164 33.0176H4.23828C3.96484 33.0176 3.75977 32.8125 3.75977 32.5391C3.75977 32.2656 3.96484 32.0605 4.23828 32.0605H16.8164C17.0898 32.0605 17.2949 32.2656 17.2949 32.5391C17.2949 32.8125 17.0898 33.0176 16.8164 33.0176Z" fill="#FFCC00"/>
<path fill-rule="evenodd" clip-rule="evenodd" d="M25.2246 35H2.93945C2.66602 35 2.46094 34.7949 2.46094 34.5215V7.31445C2.46094 7.04102 2.66602 6.83594 2.93945 6.83594H7.79297V2.80273C7.79297 2.5293 7.99805 2.32422 8.27148 2.32422H25.2246C25.498 2.32422 25.7031 2.5293 25.7031 2.80273V8.95508C25.7031 9.22852 25.498 9.43359 25.2246 9.43359C24.9512 9.43359 24.7461 9.22852 24.7461 8.95508V3.28125H8.75V7.31445C8.75 7.51953 8.54492 7.79297 8.27148 7.79297H3.41797V34.043H24.7461V28.3691C24.7461 28.0957 24.9512 27.8906 25.2246 27.8906C25.498 27.8906 25.7031 28.0957 25.7031 28.3691V34.5215C25.7031 34.7949 25.498 35 25.2246 35Z" fill="#FFCC00"/>
<path fill-rule="evenodd" clip-rule="evenodd" d="M3.00781 32.6758H0.683594C0.410156 32.6758 0.205078 32.4707 0.205078 32.1973V0.478516C0.205078 0.205078 0.410156 0 0.683594 0H22.832C23.1055 0 23.3105 0.205078 23.3105 0.478516V2.80273C23.3105 3.00781 23.1055 3.28125 22.832 3.28125C22.5586 3.28125 22.3535 3.00781 22.3535 2.80273V0.957031H1.16211V31.7188H3.00781C3.28125 31.7188 3.48633 31.9922 3.48633 32.1973C3.48633 32.4707 3.28125 32.6758 3.00781 32.6758Z" fill="#FFCC00"/>
<path fill-rule="evenodd" clip-rule="evenodd" d="M8.2716 7.79296H2.93957C2.73449 7.79296 2.59777 7.65625 2.52941 7.45117C2.46105 7.24609 2.46105 7.04101 2.66613 6.90429L7.9298 2.39257C8.13488 2.32421 8.2716 2.25585 8.47668 2.32421C8.61339 2.39257 8.75011 2.59765 8.75011 2.80273V7.31445C8.75011 7.51953 8.54503 7.79296 8.2716 7.79296ZM4.23839 6.83593H7.79308V3.82812L4.23839 6.83593Z" fill="#FFCC00"/>
<path fill-rule="evenodd" clip-rule="evenodd" d="M22.4902 5.67383H11.0059C10.7324 5.67383 10.5273 5.46875 10.5273 5.19531C10.5273 4.92188 10.7324 4.7168 11.0059 4.7168H22.4902C22.7637 4.7168 22.9688 4.92188 22.9688 5.19531C22.9688 5.46875 22.7637 5.67383 22.4902 5.67383Z" fill="#FFCC00"/>
<path fill-rule="evenodd" clip-rule="evenodd" d="M18.3887 7.65625H11.0059C10.7324 7.65625 10.5273 7.45117 10.5273 7.17773C10.5273 6.9043 10.7324 6.69922 11.0059 6.69922H18.3887C18.6621 6.69922 18.8672 6.9043 18.8672 7.17773C18.8672 7.45117 18.6621 7.65625 18.3887 7.65625Z" fill="#FFCC00"/>
</g>
<defs>
<clipPath id="clip0_1_2826">
<rect width="35" height="35" fill="white"/>
</clipPath>
</defs>
</svg>
