<svg width="50" height="51" viewBox="0 0 50 51" fill="none" xmlns="http://www.w3.org/2000/svg">
<path d="M21.0938 21.875C17.1875 21.875 14.0625 25 14.0625 28.9062C14.0625 32.8125 17.1875 35.9375 21.0938 35.9375C25 35.9375 28.125 32.8125 28.125 28.9062C28.0469 25 24.9219 21.875 21.0938 21.875ZM21.0938 34.375C18.0469 34.375 15.625 31.9531 15.625 28.9062C15.625 25.8594 18.0469 23.4375 21.0938 23.4375C24.1406 23.4375 26.5625 25.8594 26.5625 28.9062C26.4844 31.9531 24.0625 34.375 21.0938 34.375Z" fill="#FFCC00"/>
<path d="M21.0938 24.2188C18.5156 24.2188 16.4062 26.3281 16.4062 28.9062C16.4062 31.4844 18.5156 33.5938 21.0938 33.5938C23.6719 33.5938 25.7812 31.4844 25.7812 28.9062C25.7031 26.3281 23.6719 24.2188 21.0938 24.2188ZM21.0938 32.0312C19.375 32.0312 17.9688 30.625 17.9688 28.9062C17.9688 27.1875 19.375 25.7812 21.0938 25.7812C22.8125 25.7812 24.2188 27.1875 24.2188 28.9062C24.1406 30.625 22.8125 32.0312 21.0938 32.0312Z" fill="#FFCC00"/>
<path d="M42.2656 13.6719H40.7031C40.7031 13.5937 40.625 13.5156 40.625 13.4375L41.7188 12.3437C42.0312 12.0312 42.0312 11.5625 41.7188 11.25L38.9062 8.4375C38.5938 8.125 38.125 8.125 37.8125 8.4375L36.7188 9.53125C36.6406 9.53125 36.5625 9.45312 36.4844 9.45312V7.89062C36.4844 7.42187 36.1719 7.10938 35.7031 7.10938H31.7187C31.25 7.10938 30.9375 7.42187 30.9375 7.89062V9.45312C30.8594 9.45312 30.7812 9.53125 30.7031 9.53125L29.6094 8.4375C29.2969 8.125 28.8281 8.125 28.5156 8.4375L25.7031 11.25C25.3906 11.5625 25.3906 12.0312 25.7031 12.3437L26.7969 13.4375C26.7969 13.5156 26.7188 13.5937 26.7188 13.6719H25.1562C24.6875 13.6719 24.375 13.9844 24.375 14.4531V14.8437H18.2031C17.7344 14.8437 17.4219 15.1562 17.4219 15.625V18.3594C17.1094 18.4375 16.7969 18.5937 16.4844 18.75L14.5313 16.7969C14.2188 16.4844 13.75 16.4844 13.4375 16.7969L9.0625 21.1719C8.75 21.4844 8.75 21.9531 9.0625 22.2656L10.9375 24.2187C10.7812 24.5312 10.7031 24.8437 10.5469 25.1562H7.8125C7.34375 25.1562 7.03125 25.4687 7.03125 25.9375V32.0312C7.03125 32.5 7.34375 32.8125 7.8125 32.8125H10.5469C10.625 33.125 10.7812 33.4375 10.9375 33.75L8.98438 35.7031C8.67188 36.0156 8.67188 36.4844 8.98438 36.7969L13.3594 41.1719C13.6719 41.4844 14.1406 41.4844 14.4531 41.1719L16.4062 39.2187C16.7188 39.375 17.0313 39.4531 17.3438 39.6094V42.3437C17.3438 42.8125 17.6563 43.125 18.125 43.125H24.2188C24.6875 43.125 25 42.8125 25 42.3437V39.6094C25.3125 39.5312 25.625 39.375 25.9375 39.2187L27.8906 41.1719C28.2031 41.4844 28.6719 41.4844 28.9844 41.1719L33.2812 36.7969C33.5937 36.4844 33.5937 36.0156 33.2812 35.7031L31.3281 33.75C31.4844 33.4375 31.5625 33.125 31.7187 32.8125H34.4531C34.9219 32.8125 35.2344 32.5 35.2344 32.0312V25.8594H35.625C36.0937 25.8594 36.4062 25.5469 36.4062 25.0781V23.5156C36.4844 23.5156 36.5625 23.4375 36.6406 23.4375L37.7344 24.5312C38.0469 24.8437 38.5156 24.8437 38.8281 24.5312L41.6406 21.7187C41.9531 21.4062 41.9531 20.9375 41.6406 20.625L40.5469 19.5312C40.5469 19.4531 40.625 19.375 40.625 19.2969H42.1875C42.6562 19.2969 42.9688 18.9844 42.9688 18.5156V14.5312C43.0469 14.0625 42.6562 13.6719 42.2656 13.6719ZM33.6719 31.25H31.1719C30.8594 31.25 30.5469 31.4844 30.3906 31.7969C30.2344 32.4219 30 32.9688 29.6875 33.5156C29.5312 33.8281 29.6094 34.2187 29.8438 34.4531L31.6406 36.25L28.4375 39.5312L26.5625 37.6562C26.3281 37.4219 25.9375 37.3437 25.625 37.5C25.0781 37.8125 24.5312 38.0469 23.9062 38.2031C23.5938 38.2812 23.3594 38.5938 23.3594 38.9844V41.4844H18.75V38.9844C18.75 38.6719 18.5156 38.3594 18.2031 38.2031C17.5781 38.0469 17.0312 37.8125 16.4844 37.5C16.1719 37.3437 15.7812 37.4219 15.5469 37.6562L13.75 39.4531L10.5469 36.1719L12.3438 34.375C12.5781 34.1406 12.6562 33.75 12.5 33.4375C12.1875 32.8906 11.9531 32.3437 11.7969 31.7187C11.7188 31.4062 11.4063 31.1719 11.0156 31.1719H8.59375V26.5625H11.0938C11.4062 26.5625 11.7188 26.3281 11.875 26.0156C12.0312 25.3906 12.2656 24.8437 12.5781 24.2969C12.7344 23.9844 12.6562 23.5937 12.4219 23.3594L10.625 21.5625L13.8281 18.3594L15.625 20.1562C15.8594 20.3906 16.25 20.4687 16.5625 20.3125C17.1094 20 17.6562 19.7656 18.2812 19.6094C18.5938 19.5312 18.8281 19.2187 18.8281 18.8281V16.4062H23.4375V18.9062C23.4375 19.2187 23.6719 19.5312 23.9844 19.6875C24.6094 19.8437 25.1563 20.0781 25.7031 20.3906H25.7812L25.625 20.5469C25.3125 20.8594 25.3125 21.3281 25.625 21.6406L28.4375 24.4531C28.75 24.7656 29.2188 24.7656 29.5312 24.4531L29.6875 24.2969V24.375C30 24.9219 30.2344 25.4688 30.3906 26.0938C30.4688 26.4062 30.7813 26.6406 31.1719 26.6406H33.6719V31.25ZM41.4844 17.6562H40.1562C39.8438 17.6562 39.5312 17.8906 39.375 18.2031C39.2969 18.5937 39.1406 18.9062 38.9062 19.2969C38.75 19.6094 38.8281 20 39.0625 20.2344L40 21.1719L38.2812 22.8906L37.3438 21.875C37.1094 21.6406 36.7187 21.5625 36.4062 21.7187C36.0937 21.875 35.7031 22.0312 35.3906 22.1875C35.0781 22.2656 34.8437 22.5781 34.8437 22.9687V24.2969H32.4219V22.9687C32.4219 22.6562 32.2656 22.3437 31.9531 22.2656C31.875 22.2656 31.875 22.2656 31.7969 22.1875C31.4844 22.1094 31.1719 21.9531 30.8594 21.7969C30.5469 21.6406 30.1562 21.7187 29.9219 21.9531L28.9062 22.8906L27.1875 21.1719L28.125 20.2344C28.3594 20 28.4375 19.6094 28.2812 19.2969C28.125 18.9844 27.9688 18.6719 27.8906 18.2812V18.2031C27.8125 17.8906 27.5 17.7344 27.1875 17.7344H25.7812V15.3125H27.1094C27.4219 15.3125 27.7344 15.0781 27.8906 14.7656C27.9688 14.375 28.125 14.0625 28.3594 13.75C28.5156 13.4375 28.4375 13.0469 28.2031 12.8125L27.2656 11.875L28.9844 10.1562L29.9219 11.0937C30.1562 11.3281 30.5469 11.4062 30.8594 11.25C31.1719 11.0937 31.5625 10.9375 31.875 10.7812C32.1875 10.7031 32.4219 10.3906 32.4219 10V8.59375H34.8437V9.92187C34.8437 10.2344 35.0781 10.5469 35.3906 10.7031C35.7812 10.7812 36.0937 10.9375 36.4062 11.1719C36.7187 11.3281 37.1094 11.25 37.3438 11.0156L38.2812 10.0781L40 11.7969L39.0625 12.7344C38.8281 12.9687 38.75 13.3594 38.9062 13.6719C39.0625 13.9844 39.2188 14.375 39.375 14.6875C39.4531 15 39.7656 15.2344 40.1562 15.2344H41.4844V17.6562Z" fill="#FFCC00"/>
<path d="M33.5938 11.5625C30.9375 11.5625 28.75 13.75 28.75 16.4062C28.75 19.0625 30.9375 21.25 33.5938 21.25C36.25 21.25 38.4375 19.0625 38.4375 16.4062C38.4375 13.75 36.25 11.6406 33.5938 11.5625ZM33.5938 19.6875C31.7969 19.6875 30.3125 18.2031 30.3125 16.4062C30.3125 14.6094 31.7969 13.125 33.5938 13.125C35.3906 13.125 36.875 14.6094 36.875 16.4062C36.875 18.2031 35.3906 19.6875 33.5938 19.6875Z" fill="#FFCC00"/>
<path d="M33.5938 13.75C32.1094 13.75 30.9375 14.9219 30.9375 16.4062C30.9375 17.8906 32.1094 19.0625 33.5938 19.0625C35.0781 19.0625 36.25 17.8906 36.25 16.4062C36.25 14.9219 35.0781 13.75 33.5938 13.75ZM33.5938 17.5C32.9688 17.5 32.5 17.0312 32.5 16.4062C32.5 15.7812 32.9688 15.3125 33.5938 15.3125C34.2188 15.3125 34.6875 15.7812 34.6875 16.4062C34.6875 17.0312 34.2188 17.5 33.5938 17.5Z" fill="#FFCC00"/>
</svg>
