<svg width="50" height="47" viewBox="0 0 50 47" fill="none" xmlns="http://www.w3.org/2000/svg">
<path d="M49.9545 21.648C49.7152 21.2099 49.4323 20.7947 49.1098 20.4081C49.038 20.3396 48.8726 20.1844 46.1092 19.5871V17.7824C46.1092 17.775 46.1061 17.7686 46.1055 17.7612C46.105 17.7538 46.1055 17.7455 46.1055 17.7376C46.1024 17.7239 46.0984 17.7104 46.0937 17.6972C46.09 17.6804 46.0849 17.6639 46.0787 17.6479C46.0702 17.6283 46.0598 17.6095 46.0477 17.5917C46.039 17.5769 46.0292 17.5627 46.0182 17.5493C46.004 17.5332 45.988 17.5186 45.9707 17.5055C45.9577 17.4938 45.9439 17.483 45.9294 17.4729C45.9093 17.4616 45.8882 17.4521 45.8663 17.4444C45.8533 17.4376 45.8398 17.4315 45.826 17.4261L45.6122 17.3685L48.5968 8.90741C48.614 8.8586 48.6203 8.8069 48.6155 8.75562C48.6106 8.70433 48.5947 8.65456 48.5686 8.60947C48.5425 8.56439 48.5069 8.52496 48.464 8.49371C48.421 8.46245 48.3718 8.44004 48.3193 8.42791L46.0089 7.89567C46.3937 6.15632 46.6297 4.39003 46.7147 2.61422C46.7185 2.52284 46.687 2.43329 46.626 2.36273C46.5649 2.29217 46.4788 2.24555 46.384 2.2318L30.9857 0.0038049C30.9334 -0.00334474 30.8802 -0.000397686 30.8292 0.0124708C30.7781 0.0253392 30.7303 0.0478663 30.6886 0.0787121C30.6468 0.109854 30.6121 0.148832 30.5867 0.193243C30.5613 0.237655 30.5457 0.28656 30.5409 0.336945C30.5336 0.372427 30.2707 3.10457 29.7953 5.3715C29.7662 5.36961 29.7369 5.37093 29.708 5.37544C29.3238 5.49353 28.9501 5.64086 28.5906 5.81601C28.5431 5.83869 28.501 5.87035 28.4668 5.90908C28.4326 5.9478 28.407 5.99276 28.3916 6.04122L26.0596 13.4289C25.7894 13.4023 25.3037 13.3427 24.5065 13.2082C24.4842 13.2046 24.4615 13.2028 24.4389 13.2027C23.495 13.2027 22.0799 13.7158 20.7387 14.3185C19.048 13.7982 17.2505 13.676 15.4995 13.9622C15.1585 14.0637 7.13002 16.4622 5.55067 17.3833C4.47339 18.0826 3.7026 19.1347 3.38441 20.3401C3.37727 20.3693 3.37397 20.3993 3.3746 20.4293L3.6169 32.6909C3.39225 33.1004 3.30907 33.5672 3.37925 34.0245C3.39243 34.0923 3.42519 34.1552 3.47383 34.2063C3.52248 34.2573 3.58509 34.2943 3.65461 34.3133C4.43579 34.5607 5.19971 34.8551 5.94176 35.1949L3.25835 36.3402C3.2386 36.3487 3.2196 36.3588 3.20152 36.3703C2.83213 36.6053 1.98795 37.2169 2.12175 37.8265C2.19357 38.1527 2.49012 38.3612 3.00365 38.4479C3.76569 38.5761 4.31332 38.6594 4.67187 38.7111C3.33317 39.4976 1.86064 40.0548 0.320762 40.3576C0.23571 40.372 0.158124 40.4131 0.100239 40.4743C0.0423539 40.5354 0.00746268 40.6133 0.00106766 40.6954C-0.00532736 40.7776 0.0171377 40.8595 0.0649202 40.9282C0.112703 40.9968 0.183084 41.0483 0.264965 41.0746L16.6149 46.3556C16.655 46.3688 16.6971 46.3754 16.7394 46.3753C16.7524 46.376 16.7653 46.376 16.7782 46.3753C18.5559 46.2058 20.3466 44.8116 21.8231 43.176L25.2676 44.3779C25.4816 44.434 25.7033 44.4593 25.9252 44.4528C26.7808 44.4528 28.4474 44.1601 30.8131 42.4254C32.2359 42.7704 33.1282 43.0537 33.138 43.0577C33.1776 43.0703 33.2192 43.0766 33.2609 43.0764H33.2733C33.3875 43.073 36.088 42.9779 37.3801 42.0997C38.5911 41.2742 49.2302 34.0964 49.2302 34.0964C49.2999 34.0493 49.3515 33.9816 49.3769 33.9037C49.395 33.849 49.8165 32.5598 49.9064 32.1331C49.9932 31.7166 49.9999 24.1402 49.9999 21.8279C50.0011 21.7652 49.9854 21.7033 49.9545 21.648ZM48.6732 21.0719C47.6498 21.5411 42.1223 24.0756 40.0971 25.042C38.1277 25.9813 38.0719 28.0974 38.3245 29.1323L38.2418 39.9096L35.204 39.1211C35.1678 37.4539 35.0036 28.7391 35.4623 26.7792C35.9319 24.7656 38.5007 23.6661 38.5327 23.6528C38.9791 23.4557 42.9091 21.7279 43.5275 21.307C43.6294 21.2495 43.7101 21.1633 43.7583 21.0601C43.8065 20.957 43.8199 20.8421 43.7967 20.7314C43.7642 20.5929 43.6655 20.1726 42.0918 19.9L41.8371 19.8444L42.7025 19.6517C44.9281 20.0903 48.1271 20.7674 48.5921 20.965C48.6107 20.9877 48.6427 21.032 48.6732 21.0719ZM34.4203 38.9417L31.8324 38.4169L31.7487 33.6199C31.7475 33.5387 31.7183 33.4601 31.6656 33.3962C31.613 33.3324 31.5398 33.2868 31.4574 33.2665L8.70524 27.6554C8.65084 27.642 8.59402 27.64 8.53872 27.6495C8.48342 27.659 8.43093 27.6798 8.38488 27.7106C8.33882 27.7413 8.3003 27.7812 8.27194 27.8274C8.24359 27.8737 8.22609 27.9253 8.22064 27.9787L7.84556 31.6255L6.92337 31.248C6.94145 30.4235 7.08146 23.6094 6.83089 21.9383C6.62424 20.5584 8.43246 19.1455 8.71661 18.9322C9.08239 18.7917 9.48071 18.6399 9.89454 18.4822L36.275 24.1969C35.5011 24.8274 34.9506 25.6709 34.6993 26.6116C34.2338 28.6134 34.3758 36.8517 34.4203 38.9417ZM29.6574 39.2606L25.4122 37.6412C25.5155 37.4756 25.6323 37.3115 25.7599 37.1484L30.0573 38.72C29.9085 38.8898 29.7741 39.0705 29.6553 39.2606H29.6574ZM7.84298 35.2659C7.81449 35.2361 7.78096 35.2111 7.74378 35.1919C7.64769 35.1461 5.59768 34.1713 4.28801 33.7293C4.32778 33.6942 4.35937 33.6516 4.38073 33.6041C4.4021 33.5567 4.41275 33.5054 4.412 33.4538L4.40063 32.8703C4.71297 32.3597 5.10572 31.898 5.56513 31.5013L7.86519 32.4416C7.90792 32.4997 7.96755 32.5446 8.03672 32.5707L9.56286 33.1251C8.96924 33.8219 8.39216 34.5518 7.84298 35.2659ZM10.0888 32.5209L8.80702 32.0557C8.77027 32.0166 8.72517 31.9855 8.67476 31.9645L8.59623 31.9325L8.77447 30.2008L11.6341 30.9622C11.0893 31.4542 10.5734 31.9746 10.0888 32.5209ZM12.3393 30.3787L8.85145 29.4502L8.95065 28.4833L13.588 29.6271C13.5363 29.631 13.486 29.6449 13.4402 29.668C13.0516 29.8729 12.6831 30.1107 12.3393 30.3787ZM29.4074 33.7298C29.3953 33.6757 29.3704 33.6251 29.3346 33.5817C29.2987 33.5382 29.2529 33.5033 29.2007 33.4794L30.9743 33.917L30.9986 35.3368L28.7771 34.4192C29.054 34.2221 29.2353 34.1038 29.242 34.0989C29.3042 34.0588 29.3528 34.0025 29.3821 33.9366C29.4115 33.8708 29.4202 33.7983 29.4074 33.7278V33.7298ZM28.076 34.9401L31.0146 36.1519L31.0513 38.2582L30.8643 38.2203L26.2843 36.5447C26.8383 35.9675 27.4372 35.4312 28.076 34.9401ZM16.8748 16.6076C16.8879 16.6803 16.9235 16.7477 16.977 16.8011C17.0304 16.8545 17.0994 16.8914 17.175 16.9072L37.1584 21.1158C37.1859 21.1215 37.214 21.1243 37.2421 21.1242C37.2795 21.1242 37.3167 21.1192 37.3527 21.1094C37.5785 21.0453 39.4502 20.5136 40.1379 20.2351L41.9301 20.6235C42.2302 20.6749 42.5253 20.7499 42.8125 20.8477C41.9859 21.2863 39.7127 22.3109 38.2108 22.9712C37.8077 23.1506 37.4219 23.3633 37.0577 23.607L11.1742 17.9993C13.5213 17.1122 15.9567 16.2192 16.2765 16.1695C16.5963 16.1197 17.1032 16.0374 17.5165 15.9625C17.2581 16.1103 17.0877 16.2089 17.0515 16.2296C16.986 16.2687 16.9342 16.3255 16.9027 16.3929C16.8712 16.4602 16.8615 16.535 16.8748 16.6076ZM22.998 17.3734L24.024 15.8743L25.7904 16.1236C25.4603 16.9304 25.2087 17.5414 25.096 17.815L22.998 17.3734ZM42.5056 17.438L44.6047 17.912L42.5557 18.9169L41.8919 19.0647C42.0391 18.6774 42.253 18.1082 42.5056 17.438ZM43.8489 19.1179L45.3311 18.3911V19.4215C44.8904 19.3294 44.4006 19.2288 43.8489 19.1179ZM47.7236 9.05377L44.8496 17.2044L42.7707 16.7347C43.7559 14.1228 45.125 10.4908 45.654 9.07792C45.7098 8.92909 45.7627 8.77419 45.8126 8.6132L47.7236 9.05377ZM31.2745 0.796737L45.918 2.91582C45.8555 3.92115 45.6147 6.97559 44.9209 8.82955C44.1175 10.9757 41.3742 18.2452 40.9888 19.2673L40.0072 19.4856C39.9895 19.4911 39.9723 19.4977 39.9555 19.5053C39.9441 19.5097 39.9312 19.5092 39.9199 19.5147C39.5381 19.697 37.9287 20.1706 37.2246 20.3712L25.8648 17.9771C26.4816 16.4804 29.3815 9.42634 30.0867 7.33239C30.7434 5.38431 31.1505 1.95878 31.2745 0.796737ZM29.087 6.40985C29.2456 6.3379 29.4373 6.25658 29.6073 6.19153C29.5246 6.52171 29.4368 6.83219 29.3443 7.10619C28.9496 8.27661 27.8265 11.1009 26.8247 13.5773L29.087 6.40985ZM26.3422 14.1928C26.3961 14.1922 26.4493 14.1809 26.4983 14.1595C26.5473 14.1381 26.5911 14.1071 26.6268 14.0686C26.4351 14.5402 26.2507 14.9936 26.0792 15.414L23.8907 15.1045C23.817 15.0945 23.7419 15.1047 23.674 15.1338C23.6062 15.163 23.5484 15.2099 23.5074 15.2691L22.2096 17.1669C22.2038 17.179 22.1986 17.1913 22.1941 17.2039L18.3007 16.3843C19.0028 15.997 19.9111 15.5244 20.8374 15.0981C20.9327 15.0908 21.0218 15.0501 21.0875 14.9838C22.3501 14.4165 23.6148 13.9577 24.4063 13.9454C25.0446 14.0716 25.6915 14.1543 26.3422 14.1928ZM4.15368 20.4663C4.43262 19.4725 5.07113 18.6049 5.95622 18.017C7.45447 17.1433 15.6488 14.696 15.6938 14.6802C17.0253 14.477 18.3855 14.5205 19.6998 14.8083C19.2684 15.0207 18.8633 15.2292 18.5053 15.4199C18.5053 15.413 18.5053 15.4061 18.5053 15.3992C18.4953 15.3514 18.4755 15.3059 18.4471 15.2653C18.4186 15.2248 18.3821 15.19 18.3395 15.1629C18.2969 15.1359 18.2492 15.1171 18.199 15.1077C18.1488 15.0982 18.0972 15.0983 18.0471 15.108C18.0347 15.108 16.7555 15.3544 16.1655 15.4342C15.6871 15.4992 12.0282 16.8722 9.82944 17.708L9.64552 17.6681C9.59571 17.6572 9.54413 17.6558 9.49375 17.664C9.44337 17.6721 9.39519 17.6897 9.35197 17.7158C9.30875 17.7418 9.27135 17.7757 9.24193 17.8156C9.21251 17.8554 9.19165 17.9004 9.18055 17.948C9.18055 17.948 9.18055 17.9529 9.18055 17.9554L8.37666 18.2634C8.34595 18.2751 8.31695 18.2905 8.29039 18.3092C8.18706 18.3817 5.77179 20.1134 6.0611 22.0438C6.28016 23.5094 6.18148 29.3866 6.151 30.9326L5.64779 30.7266C5.582 30.6999 5.50977 30.6909 5.43898 30.7006C5.36819 30.7103 5.30157 30.7384 5.24637 30.7818C4.93372 31.0345 4.64279 31.3107 4.37635 31.6077L4.15368 20.4663ZM5.28253 38.0448C5.2753 38.0448 4.57991 37.9601 3.13901 37.7176C3.05697 37.7063 2.97687 37.6846 2.90084 37.653C3.08919 37.3947 3.32921 37.1745 3.60708 37.005L6.86189 35.6153L6.86757 35.6113C7.17342 35.7518 7.37491 35.8474 7.39041 35.8548C7.25746 36.0286 7.12675 36.2006 6.99828 36.3707C6.75701 36.6896 6.52452 36.9961 6.30185 37.2849C6.05981 37.595 5.78259 37.8786 5.47524 38.1306C5.42087 38.0851 5.35402 38.0553 5.28253 38.0448ZM16.7823 45.6257L1.76734 40.776C3.24647 40.3507 5.6137 39.439 6.9337 37.724C7.15637 37.4342 7.39041 37.1262 7.63322 36.8059C9.42853 34.4374 11.6542 31.5023 13.6779 30.392L28.1266 33.9545C27.1495 34.6533 26.2536 35.4498 25.4541 36.3303C25.397 36.3454 25.3445 36.3729 25.3005 36.4106C25.2564 36.4483 25.2222 36.4952 25.2004 36.5477C25.1874 36.584 25.1806 36.6221 25.1802 36.6605C24.833 37.0779 24.5482 37.5394 24.334 38.0315C23.5477 39.9845 20.0495 45.2334 16.7823 45.6257ZM25.5223 43.6747L22.346 42.5664C23.4449 41.268 24.3568 39.8351 25.0573 38.306L29.3149 39.9323C29.0883 40.5017 28.9746 41.1063 28.9796 41.7153C28.9796 41.7997 29.0098 41.8816 29.0652 41.9475C29.1207 42.0134 29.198 42.0592 29.2844 42.0775C29.4704 42.1169 29.6497 42.1563 29.8253 42.1958C27.0365 44.0699 25.5269 43.6752 25.5223 43.6747ZM36.9296 41.4945C35.9289 42.176 33.7264 42.3106 33.3167 42.3323C33.0037 42.2337 31.6816 41.8395 29.769 41.4211C29.8003 40.5057 30.1908 39.6349 30.8632 38.9812L34.7261 39.7652L38.1638 40.6567C37.5661 41.0618 37.1243 41.3609 36.9296 41.4945ZM49.1444 31.9857C49.0834 32.2775 48.8132 33.1325 48.6748 33.5627C47.829 34.1334 42.207 37.9265 39.0178 40.0821L39.102 29.0924C39.1024 29.0615 39.0985 29.0307 39.0907 29.0008C39.0659 28.9022 38.5069 26.6328 40.4442 25.7088C42.5273 24.7153 48.3297 22.0556 49.0927 21.7062C49.1382 21.7811 49.1837 21.854 49.2234 21.924C49.2229 25.7901 49.2017 31.5969 49.1444 31.9857Z" fill="black"/>
</svg>
