<svg width="50" height="50" viewBox="0 0 50 50" fill="none" xmlns="http://www.w3.org/2000/svg">
<path d="M41.25 34.8437C41.3281 34.375 41.7188 34.0625 42.1875 34.0625H43.4375C43.8281 34.0625 44.1406 33.8281 44.2188 33.4375C44.4531 32.1875 44.6094 30.9375 44.6094 29.6875C44.6094 29.2188 44.2969 28.9062 43.8281 28.9062H35.9375V18.75C35.9375 18.4375 35.7031 18.125 35.3906 17.9688L30.4688 16.5625V12.5C30.4688 12.0312 30.1562 11.7188 29.6875 11.7188H20.3125C19.8438 11.7188 19.5312 12.0312 19.5312 12.5V16.5625L14.6094 17.9688C14.2969 18.0469 14.0625 18.3594 14.0625 18.75V28.9062H6.25C5.78125 28.9062 5.46875 29.2188 5.46875 29.6875C5.46875 30.9375 5.625 32.1875 5.85938 33.4375C5.9375 33.8281 6.25 34.0625 6.64062 34.0625H7.8125C8.28125 34.0625 8.67187 34.375 8.75 34.8437C9.0625 35.7812 9.45313 36.6406 9.84375 37.5C10.0781 37.8906 10 38.3594 9.6875 38.75L8.82813 39.6094C8.59375 39.8438 8.59375 40.2344 8.82813 40.5469C10.2344 42.6563 12.0313 44.4531 14.1406 45.8594C14.4531 46.0938 14.8438 46.0156 15.1562 45.7812L16.0156 44.9219C16.3281 44.6094 16.875 44.5312 17.2656 44.7656C18.125 45.2344 18.9844 45.5469 19.9219 45.8594C20.3906 45.9375 20.7031 46.3281 20.7031 46.7969V48.0469C20.7031 48.4375 20.9375 48.75 21.3281 48.8281C23.8281 49.2969 26.3281 49.2969 28.8281 48.8281C29.2188 48.75 29.4531 48.4375 29.4531 48.0469V46.875C29.4531 46.4062 29.7656 46.0156 30.2344 45.9375C31.1719 45.625 32.0312 45.2344 32.8906 44.8438C33.2812 44.6094 33.75 44.6875 34.1406 45L35 45.8594C35.2344 46.0938 35.7031 46.1719 36.0156 45.9375C38.125 44.5312 39.9219 42.7344 41.3281 40.625C41.5625 40.3125 41.4844 39.9219 41.25 39.6094L40.3906 38.75C40.0781 38.4375 40 37.8906 40.2344 37.5C40.5469 36.6406 40.9375 35.7812 41.25 34.8437ZM30.4688 18.2031L34.375 19.2969V28.9062H30.4688V18.2031ZM21.0938 13.2812H28.9062V28.9062H27.3438V25.7812C27.3438 25.3125 27.0312 25 26.5625 25H23.4375C22.9688 25 22.6562 25.3125 22.6562 25.7812V28.9062H21.0938V13.2812ZM25.7812 26.5625V28.9062H24.2188V26.5625H25.7812ZM15.625 19.375L19.5312 18.2812V28.9062H15.625V19.375ZM35.7812 30.4688C35.3906 36.4062 30.1562 40.8594 24.2188 40.4688C18.8281 40.0781 14.6094 35.8594 14.2188 30.4688H35.7812ZM39.7656 34.375C39.5312 35.2344 39.1406 36.0156 38.75 36.7969C38.2031 37.8125 38.3594 39.0625 39.1406 39.8438L39.5312 40.2344C38.4375 41.7969 37.0312 43.125 35.5469 44.2188L35.1562 43.8281C34.375 43.0469 33.125 42.8906 32.1094 43.4375C31.3281 43.8281 30.5469 44.1406 29.6875 44.4531C28.5938 44.7656 27.8906 45.7812 27.8125 46.875V47.4219C25.9375 47.7344 24.0625 47.7344 22.1875 47.4219V46.875C22.1875 45.7812 21.4062 44.7656 20.3125 44.4531C19.4531 44.2188 18.6719 43.8281 17.8906 43.4375C16.875 42.8906 15.625 43.0469 14.8438 43.8281L14.4531 44.2188C12.8906 43.125 11.5625 41.7188 10.4687 40.2344L10.8594 39.8438C11.6406 39.0625 11.7969 37.8125 11.25 36.7969C10.8594 36.0156 10.5469 35.2344 10.2344 34.375C9.92188 33.2812 8.90625 32.5781 7.8125 32.5H7.26563C7.1875 31.875 7.10938 31.1719 7.03125 30.4688H12.6563C13.0469 37.2656 18.9062 42.4219 25.7812 42.0312C32.0312 41.6406 36.9531 36.7188 37.3438 30.4688H42.9688C42.9688 31.1719 42.8906 31.875 42.7344 32.5H42.1875C41.0156 32.5 40.0781 33.2812 39.7656 34.375Z" fill="#FFCC00"/>
<path d="M25.7814 10.9374V5.31235C27.0314 4.8436 27.6564 3.51548 27.1876 2.3436C26.7189 1.17173 25.4689 0.468604 24.2189 0.937354C22.9689 1.4061 22.3439 2.6561 22.8126 3.9061C23.047 4.60923 23.5939 5.07798 24.2189 5.31235V10.9374H25.7814ZM25.0001 2.3436C25.4689 2.3436 25.7814 2.6561 25.7814 3.12485C25.7814 3.5936 25.4689 3.9061 25.0001 3.9061C24.5314 3.9061 24.2189 3.5936 24.2189 3.12485C24.2189 2.6561 24.5314 2.3436 25.0001 2.3436Z" fill="#FFCC00"/>
<path d="M32.8125 10.9375V16.4062H34.375V11.25L35.7031 9.92188C36.0156 10.0781 36.3281 10.1562 36.7188 10.1562C38.0469 10.1562 39.0625 9.14062 39.0625 7.8125C39.0625 6.48438 38.0469 5.46875 36.7188 5.46875C35.3906 5.46875 34.375 6.48438 34.375 7.8125C34.375 8.125 34.4531 8.51563 34.6094 8.82813L33.0469 10.3906C32.8906 10.5469 32.8125 10.7031 32.8125 10.9375ZM36.7188 7.03125C37.1875 7.03125 37.5 7.34375 37.5 7.8125C37.5 8.28125 37.1875 8.59375 36.7188 8.59375C36.25 8.59375 35.9375 8.28125 35.9375 7.8125C35.9375 7.34375 36.25 7.03125 36.7188 7.03125Z" fill="#FFCC00"/>
<path d="M13.2812 5.46875C11.9531 5.46875 10.9375 6.48438 10.9375 7.8125C10.9375 9.14062 11.9531 10.1562 13.2812 10.1562C13.5938 10.1562 13.9844 10.0781 14.2969 9.92188L15.625 11.25V16.4062H17.1875V10.9375C17.1875 10.7031 17.1094 10.5469 16.9531 10.3906L15.3906 8.82813C15.5469 8.51563 15.625 8.20312 15.625 7.8125C15.625 6.48438 14.6094 5.46875 13.2812 5.46875ZM13.2812 8.59375C12.8125 8.59375 12.5 8.28125 12.5 7.8125C12.5 7.34375 12.8125 7.03125 13.2812 7.03125C13.75 7.03125 14.0625 7.34375 14.0625 7.8125C14.0625 8.28125 13.75 8.59375 13.2812 8.59375Z" fill="#FFCC00"/>
<path d="M5.46875 14.0625C4.14062 14.0625 3.125 15.0781 3.125 16.4062C3.125 17.7344 4.14062 18.75 5.46875 18.75C6.09375 18.75 6.64063 18.5156 7.10938 18.125L9.375 19.2969V25H10.9375V18.75C10.9375 18.4375 10.7812 18.2031 10.4687 18.0469L7.8125 16.7187C7.8125 16.6406 7.8125 16.5625 7.8125 16.4062C7.8125 15.0781 6.79688 14.0625 5.46875 14.0625ZM5.46875 17.1875C5 17.1875 4.6875 16.875 4.6875 16.4062C4.6875 15.9375 5 15.625 5.46875 15.625C5.9375 15.625 6.25 15.9375 6.25 16.4062C6.25 16.875 5.9375 17.1875 5.46875 17.1875Z" fill="#FFCC00"/>
<path d="M10.9375 26.5625H9.375V28.125H10.9375V26.5625Z" fill="#FFCC00"/>
<path d="M46.875 16.4062C46.875 15.0781 45.8594 14.0625 44.5312 14.0625C43.2031 14.0625 42.1875 15.0781 42.1875 16.4062C42.1875 16.4844 42.1875 16.5625 42.1875 16.7187L39.4531 18.0469C39.2187 18.2031 39.0625 18.4375 39.0625 18.75V25H40.625V19.2188L42.8906 18.0469C43.8281 18.9844 45.3125 18.9062 46.1719 17.9688C46.6406 17.5781 46.875 17.0312 46.875 16.4062ZM43.75 16.4062C43.75 15.9375 44.0625 15.625 44.5312 15.625C45 15.625 45.3125 15.9375 45.3125 16.4062C45.3125 16.875 45 17.1875 44.5312 17.1875C44.0625 17.1875 43.75 16.875 43.75 16.4062Z" fill="#FFCC00"/>
<path d="M40.625 26.5625H39.0625V28.125H40.625V26.5625Z" fill="#FFCC00"/>
<path d="M27.3438 15.625H22.6562V17.1875H27.3438V15.625Z" fill="#FFCC00"/>
<path d="M27.3438 18.75H22.6562V20.3125H27.3438V18.75Z" fill="#FFCC00"/>
<path d="M27.3438 21.875H22.6562V23.4375H27.3438V21.875Z" fill="#FFCC00"/>
<path d="M33.5938 20.3125H31.25V21.875H33.5938V20.3125Z" fill="#FFCC00"/>
<path d="M33.5938 23.4375H31.25V25H33.5938V23.4375Z" fill="#FFCC00"/>
<path d="M18.75 20.3125H16.4062V21.875H18.75V20.3125Z" fill="#FFCC00"/>
<path d="M18.75 23.4375H16.4062V25H18.75V23.4375Z" fill="#FFCC00"/>
</svg>
